<?xml version="1.0" encoding="UTF-8" standalone="no"?>
<svg width="300px" height="300px" viewBox="0 0 300 300" version="1.1" xmlns="http://www.w3.org/2000/svg" xmlns:xlink="http://www.w3.org/1999/xlink" xmlns:sketch="http://www.bohemiancoding.com/sketch/ns">
    <title>Artboard 1</title>
    <description>Created with Sketch (http://www.bohemiancoding.com/sketch)</description>
    <defs></defs>
    <g id="Page 1" stroke="none" stroke-width="1" fill="none" fill-rule="evenodd">
        <g id="Artboard 1">
            <path d="M24,0 L275.999998,0 C276,13.2548347 286.745165,24 300,24 L300,275.999998 C286.745165,276 276,286.745165 276,300 L24.0000019,300 C24,286.745165 13.2548347,276 0,276 L0,24 C13.2548347,24 24,13.2548347 24,0 Z M24,0" id="Rectangle 1" fill="#B3181D"></path>
            <path d="M31,8 L269.999998,8 C270,20.7025499 280.29745,31 293,31 L293,269.999998 C280.29745,270 270,280.29745 270,293 L31.0000018,293 C31,280.29745 20.7025499,270 8,270 L8,31 C20.7025499,31 31,20.7025499 31,8 Z M31,8" id="Rectangle 1" fill="#830F13"></path>
            <path d="M27.5,227.5 L273.772202,227.5" id="Line" stroke="#FFFFFF" stroke-linecap="square"></path>
            <path d="M145.32,53.028 C144.788,53.168 144.088,53.308 143.416,53.308 C140.98,53.308 139.664,51.796 139.664,49.556 C139.664,49.052 139.72,48.52 139.832,47.988 L141.54,39.98 L139.72,39.98 L140.224,37.74 L142.016,37.74 L142.884,33.736 L145.46,33.736 L144.62,37.74 L147.784,37.74 L147.28,39.98 L144.116,39.98 L142.38,48.268 C142.296,48.604 142.268,48.856 142.268,49.108 C142.268,50.228 142.856,50.872 143.948,50.872 C144.48,50.872 144.9,50.76 145.292,50.564 Z M120.12,45.272 L116.844,45.272 L117.376,42.78 L123.144,42.78 C122.36,48.072 120.372,53.28 115.416,53.28 C111.636,53.28 109.984,50.424 109.984,46.784 C109.984,40.568 112.588,33.12 118.384,33.12 C121.492,33.12 123.06,35.136 123.48,37.88 L120.988,39.056 C120.848,37.012 119.98,35.612 118.132,35.612 C114.772,35.612 112.56,41.632 112.56,46.364 C112.56,48.94 113.344,50.816 115.472,50.816 C117.88,50.816 119.28,48.436 120.12,45.272 Z M161.924,50.564 L161.952,53.028 C161.42,53.168 160.72,53.308 160.048,53.308 C157.612,53.308 156.296,51.796 156.296,49.556 C156.296,49.052 156.352,48.52 156.464,47.988 L158.172,39.98 L156.352,39.98 L156.856,37.74 L158.648,37.74 L159.516,33.736 L162.092,33.736 L161.252,37.74 L164.416,37.74 L163.912,39.98 L160.748,39.98 L159.012,48.268 C158.928,48.604 158.9,48.856 158.9,49.108 C158.9,50.228 159.488,50.872 160.58,50.872 C161.112,50.872 161.532,50.76 161.924,50.564 Z M128.016,44.292 L134.512,44.292 C134.54,43.956 134.568,43.592 134.568,43.256 C134.568,41.156 133.728,39.616 132.076,39.616 C130.088,39.616 128.632,41.772 128.016,44.292 Z M177.1,53.168 C174.44,53.168 173.264,52.076 173.264,50.116 C173.264,49.584 173.348,49.108 173.46,48.576 L174.58,43.284 C174.692,42.78 174.748,42.332 174.748,41.856 C174.748,40.652 174.384,39.672 172.788,39.672 C171.164,39.672 169.792,40.652 169.316,42.808 L167.104,53 L164.5,53 L168.84,32.56 L171.444,32.56 L170.576,36.676 C170.324,37.852 170.1,38.86 169.904,39.476 L169.96,39.476 C171.024,38.076 172.256,37.46 173.768,37.46 C176.176,37.46 177.324,39.056 177.324,41.464 C177.324,41.996 177.268,42.864 177.1,43.62 L176.008,48.688 C175.952,48.996 175.896,49.248 175.896,49.528 C175.896,50.34 176.344,50.704 177.1,50.704 C177.296,50.704 177.464,50.676 177.66,50.62 Z M134.064,48.828 L135.772,50.592 C134.204,52.216 132.608,53.28 130.452,53.28 C126.728,53.28 124.964,50.648 124.964,47.12 C124.964,42.696 127.68,37.46 132.132,37.46 C135.576,37.46 137.06,39.952 137.06,43.032 C137.06,43.732 136.976,44.488 136.836,45.244 L136.668,46.224 L127.652,46.224 C127.596,46.56 127.596,46.84 127.596,47.148 C127.596,49.556 128.688,50.984 130.592,50.984 C131.936,50.984 133.224,50.088 134.064,48.828 Z M189.084,48.828 L190.792,50.592 C189.224,52.216 187.628,53.28 185.472,53.28 C181.748,53.28 179.984,50.648 179.984,47.12 C179.984,42.696 182.7,37.46 187.152,37.46 C190.596,37.46 192.08,39.952 192.08,43.032 C192.08,43.732 191.996,44.488 191.856,45.244 L191.688,46.224 L182.672,46.224 C182.616,46.56 182.616,46.84 182.616,47.148 C182.616,49.556 183.708,50.984 185.612,50.984 C186.956,50.984 188.244,50.088 189.084,48.828 Z M183.036,44.292 L189.532,44.292 C189.56,43.956 189.588,43.592 189.588,43.256 C189.588,41.156 188.748,39.616 187.096,39.616 C185.108,39.616 183.652,41.772 183.036,44.292 Z M39.592,90 L43.736,70.4 L48.468,70.4 L45.276,85.52 L50.288,85.52 L49.336,90 Z M58.828,90 L59.024,87.816 L55.552,87.816 L54.88,90 L49.868,90 L58.1,70.4 L63.588,70.4 L63.532,90 Z M59.22,83.336 L59.556,78.884 C59.696,77.176 59.92,74.992 59.92,74.992 L59.864,74.992 C59.864,74.992 59.248,77.176 58.716,78.8 L57.204,83.336 Z M66.08,90 L69.3,74.88 L66.5,74.88 L67.424,70.4 L77.868,70.4 L76.944,74.88 L74.144,74.88 L70.924,90 Z M75.936,90 L80.08,70.4 L90.692,70.4 L89.768,74.88 L83.916,74.88 L83.16,78.408 L87.976,78.408 L86.996,82.888 L82.18,82.888 L81.62,85.52 L87.472,85.52 L86.548,90 Z M93.1,83.728 C93.604,84.876 94.64,85.8 95.984,85.8 C97.16,85.8 97.692,85.072 97.692,84.344 C97.692,81.908 91.364,81.068 91.364,76.084 C91.364,72.836 94.024,70.008 97.748,70.008 C100.744,70.008 102.872,71.828 103.88,74.572 L99.876,76.672 C99.372,75.272 98.504,74.488 97.496,74.488 C96.46,74.488 96.012,75.216 96.012,75.832 C96.012,78.184 102.34,78.548 102.34,84.092 C102.34,87.788 99.54,90.392 95.676,90.392 C92.54,90.392 89.908,88.684 89.04,86.136 Z M104.412,90 L107.632,74.88 L104.832,74.88 L105.756,70.4 L116.2,70.4 L115.276,74.88 L112.476,74.88 L109.256,90 Z M119.868,90 L123.984,70.4 L129.052,70.4 C133.196,70.4 135.156,73.452 135.156,76.504 C135.156,79.64 132.944,84.54 127.092,84.54 L125.72,84.54 L124.572,90 Z M126.7,80.088 L127.428,80.088 C129.248,80.088 130.452,78.324 130.452,76.728 C130.452,75.496 129.584,74.824 128.492,74.824 L127.792,74.824 Z M142.576,90 L141.568,84.092 L141.54,84.092 L140.168,84.092 L138.936,90 L134.232,90 L138.348,70.4 L143.416,70.4 C147.56,70.4 149.52,73.452 149.52,76.476 C149.52,78.744 148.4,81.684 145.628,83.14 L145.684,83.14 L147.28,90 Z M141.148,79.64 L141.876,79.64 C143.696,79.64 144.816,78.296 144.816,76.784 C144.816,75.468 143.948,74.824 142.856,74.824 L142.156,74.824 Z M156.324,85.912 C158.816,85.912 159.684,78.604 159.628,76.588 C159.6,75.3 159.208,74.488 158.368,74.488 C155.876,74.488 155.008,81.796 155.064,83.812 C155.092,85.1 155.484,85.912 156.324,85.912 Z M155.792,90.392 C152.124,90.392 150.36,87.648 150.36,83.532 C150.36,79.304 152.208,70.008 158.9,70.008 C162.568,70.008 164.332,72.864 164.332,76.98 C164.332,81.208 162.484,90.392 155.792,90.392 Z M176.652,79.556 L173.561843,83.1930872 L172.088,79.836 C171.752,79.108 171.416,78.016 171.416,78.016 L171.36,78.016 C171.36,78.016 171.192,79.108 171.024,79.92 L168.896,90 L164.108,90 L168.252,70.4 L173.18,70.4 L174.356,73.172 C174.692,74.096 175.056,75.16 175.056,75.16 L175.112,75.16 C175.112,75.16 175.868,74.18 176.54,73.396 L179.144,70.4 L184.324,70.4 L180.18,90 L175.392,90 L177.492,79.976 C177.744,78.94 177.968,78.016 177.968,78.016 L177.912,78.016 C177.912,78.016 177.184,78.94 176.652,79.556 Z M190.372,85.912 C192.864,85.912 193.732,78.604 193.676,76.588 C193.648,75.3 193.256,74.488 192.416,74.488 C189.924,74.488 189.056,81.796 189.112,83.812 C189.14,85.1 189.532,85.912 190.372,85.912 Z M189.84,90.392 C186.172,90.392 184.408,87.648 184.408,83.532 C184.408,79.304 186.256,70.008 192.948,70.008 C196.616,70.008 198.38,72.864 198.38,76.98 C198.38,81.208 196.532,90.392 189.84,90.392 Z M199.696,90 L202.916,74.88 L200.116,74.88 L201.04,70.4 L211.484,70.4 L210.56,74.88 L207.76,74.88 L204.54,90 Z M209.552,90 L213.696,70.4 L218.484,70.4 L214.34,90 Z M224.532,85.912 C227.024,85.912 227.892,78.604 227.836,76.588 C227.808,75.3 227.416,74.488 226.576,74.488 C224.084,74.488 223.216,81.796 223.272,83.812 C223.3,85.1 223.692,85.912 224.532,85.912 Z M224,90.392 C220.332,90.392 218.568,87.648 218.568,83.532 C218.568,79.304 220.416,70.008 227.108,70.008 C230.776,70.008 232.54,72.864 232.54,76.98 C232.54,81.208 230.692,90.392 224,90.392 Z M241.248,90 L239.54,83.448 C239.092,81.74 238.812,80.116 238.812,80.116 L238.756,80.116 C238.756,80.116 238.56,81.712 238.196,83.392 L236.796,90 L232.316,90 L236.46,70.4 L240.436,70.4 L241.92,76.168 C242.284,77.568 242.732,79.808 242.732,79.808 L242.788,79.808 C242.788,79.808 243.068,77.68 243.404,76.112 L244.636,70.4 L249.256,70.4 L245.112,90 Z M252.168,83.728 C252.672,84.876 253.708,85.8 255.052,85.8 C256.228,85.8 256.76,85.072 256.76,84.344 C256.76,81.908 250.432,81.068 250.432,76.084 C250.432,72.836 253.092,70.008 256.816,70.008 C259.812,70.008 261.94,71.828 262.948,74.572 L258.944,76.672 C258.44,75.272 257.572,74.488 256.564,74.488 C255.528,74.488 255.08,75.216 255.08,75.832 C255.08,78.184 261.408,78.548 261.408,84.092 C261.408,87.788 258.608,90.392 254.744,90.392 C251.608,90.392 248.976,88.684 248.108,86.136 Z M95.746,127 L98.518,113.952 L96.502,113.952 L96.978,111.74 L98.966,111.74 L99.246,110.452 C99.89,107.484 101.402,105.944 104.062,105.944 C104.902,105.944 105.658,106.112 106.414,106.392 L105.378,108.66 C104.986,108.352 104.482,108.24 104.006,108.24 C102.914,108.24 102.158,108.94 101.878,110.312 C101.766,110.788 101.654,111.264 101.57,111.74 L104.342,111.74 L103.866,113.952 L101.094,113.952 L98.322,127 Z M104.23,127 L107.03,113.84 C107.17,113.224 107.198,112.608 107.198,112.132 C107.198,111.964 107.198,111.852 107.17,111.74 L109.522,111.74 L109.522,112.16 C109.522,112.608 109.494,113.14 109.41,113.84 L109.466,113.84 C110.25,112.552 111.622,111.516 113.33,111.516 C113.722,111.516 114.114,111.6 114.478,111.712 L113.694,114.204 C113.526,114.12 113.134,114.036 112.742,114.036 C110.446,114.036 109.158,115.856 108.654,118.32 L106.834,127 Z M118.93,124.928 C121.506,124.928 123.326,120.952 123.326,117.564 C123.326,115.24 122.402,113.784 120.666,113.784 C118.118,113.784 116.298,117.732 116.298,121.148 C116.298,123.444 117.25,124.928 118.93,124.928 Z M118.678,127.28 C115.262,127.28 113.778,124.62 113.778,121.4 C113.778,116.5 116.186,111.46 120.946,111.46 C124.362,111.46 125.846,114.12 125.846,117.34 C125.846,122.24 123.55,127.28 118.678,127.28 Z M146.678,127.168 C144.018,127.168 142.87,126.104 142.87,124.06 C142.87,123.612 142.926,123.108 143.038,122.576 L144.242,117.004 C144.326,116.584 144.382,116.192 144.382,115.8 C144.382,114.596 143.878,113.784 142.506,113.784 C140.63,113.784 139.734,115.324 139.146,118.152 L137.27,127 L134.694,127 L136.85,116.836 C136.934,116.416 136.99,116.052 136.99,115.688 C136.99,114.428 136.346,113.784 135.226,113.784 C132.846,113.784 132.034,116.696 131.53,119.076 L129.85,127 L127.274,127 L130.074,113.84 C130.214,113.224 130.242,112.608 130.242,112.132 C130.242,111.964 130.242,111.852 130.214,111.74 L132.538,111.74 L132.538,112.216 L132.538,112.664 L132.426,113.756 L132.482,113.756 C133.35,112.356 134.554,111.516 136.178,111.516 C138.026,111.516 139.09,112.608 139.37,114.204 L139.426,114.204 C140.322,112.384 141.638,111.46 143.57,111.46 C145.866,111.46 146.986,113.028 146.986,115.24 C146.986,115.94 146.874,116.64 146.734,117.368 L145.614,122.688 C145.558,122.996 145.502,123.304 145.502,123.584 C145.502,124.452 146.146,124.704 146.706,124.704 C146.902,124.704 147.126,124.676 147.238,124.62 Z M159.306,127 L157.654,111.74 L160.566,111.74 L160.986,118.292 C161.126,120.476 161.21,123.052 161.266,123.332 L161.322,123.332 C161.434,123.164 162.386,120.7 163.366,118.656 L166.642,111.74 L169.442,111.74 L161.798,127.28 C159.978,130.976 158.354,132.824 155.778,132.824 C154.518,132.824 153.622,132.544 152.81,131.844 L154.35,129.772 C154.77,130.08 155.246,130.36 155.778,130.36 C157.318,130.36 158.046,129.38 159.306,127 Z M174.174,124.928 C176.75,124.928 178.57,120.952 178.57,117.564 C178.57,115.24 177.646,113.784 175.91,113.784 C173.362,113.784 171.542,117.732 171.542,121.148 C171.542,123.444 172.494,124.928 174.174,124.928 Z M173.922,127.28 C170.506,127.28 169.022,124.62 169.022,121.4 C169.022,116.5 171.43,111.46 176.19,111.46 C179.606,111.46 181.09,114.12 181.09,117.34 C181.09,122.24 178.794,127.28 173.922,127.28 Z M195.09,127.168 C192.486,127.168 191.702,126.244 191.45,124.704 L191.394,124.704 C190.582,126.188 189.406,127.28 187.502,127.28 C184.73,127.28 183.386,125.404 183.386,122.94 C183.386,122.408 183.442,121.876 183.582,121.288 L185.626,111.74 L188.202,111.74 L186.13,121.512 C186.046,121.876 185.99,122.24 185.99,122.576 C185.99,123.948 186.522,125.152 188.286,125.152 C190.162,125.152 191.338,123.136 191.73,121.232 L193.774,111.74 L196.35,111.74 L194.026,122.66 C193.97,122.996 193.914,123.276 193.914,123.528 C193.914,124.34 194.334,124.704 195.118,124.704 C195.286,124.704 195.454,124.676 195.65,124.62 Z M197.834,127 L200.634,113.84 C200.774,113.224 200.802,112.608 200.802,112.132 C200.802,111.964 200.802,111.852 200.774,111.74 L203.126,111.74 L203.126,112.16 C203.126,112.608 203.098,113.14 203.014,113.84 L203.07,113.84 C203.854,112.552 205.226,111.516 206.934,111.516 C207.326,111.516 207.718,111.6 208.082,111.712 L207.298,114.204 C207.13,114.12 206.738,114.036 206.346,114.036 C204.05,114.036 202.762,115.856 202.258,118.32 L200.438,127 Z M68.992,164 L71.764,150.952 L69.748,150.952 L70.224,148.74 L72.212,148.74 L72.492,147.452 C73.136,144.484 74.648,142.944 77.308,142.944 C78.148,142.944 78.904,143.112 79.66,143.392 L78.624,145.66 C78.232,145.352 77.728,145.24 77.252,145.24 C76.16,145.24 75.404,145.94 75.124,147.312 C75.012,147.788 74.9,148.264 74.816,148.74 L77.588,148.74 L77.112,150.952 L74.34,150.952 L71.568,164 Z M89.264,164.168 C86.66,164.168 85.82,163.216 85.708,161.592 L85.652,161.592 C84.868,162.964 83.776,164.28 81.536,164.28 C78.848,164.28 77.588,162.068 77.588,158.932 C77.588,153.864 80.276,148.46 84.896,148.46 C87.864,148.46 89.488,150.504 89.488,152.94 C89.488,153.5 89.404,154.032 89.264,154.704 L88.2,159.688 C88.144,159.996 88.088,160.276 88.088,160.528 C88.088,161.368 88.508,161.704 89.32,161.704 C89.488,161.704 89.656,161.676 89.852,161.62 Z M82.348,161.9 C85.008,161.9 86.128,157.588 86.548,155.264 C86.828,153.668 86.856,153.472 86.856,153.248 C86.856,151.932 86.128,150.784 84.672,150.784 C82.152,150.784 80.164,154.592 80.164,158.82 C80.164,160.5 80.64,161.9 82.348,161.9 Z M94.416,163.972 L92.988,148.74 L95.732,148.74 L96.32,157.224 C96.432,158.708 96.404,160.752 96.404,160.752 L96.46,160.752 C96.46,160.752 97.216,158.82 97.888,157.364 L101.948,148.74 L104.748,148.74 L97.132,163.972 Z M109.396,161.928 C111.972,161.928 113.792,157.952 113.792,154.564 C113.792,152.24 112.868,150.784 111.132,150.784 C108.584,150.784 106.764,154.732 106.764,158.148 C106.764,160.444 107.716,161.928 109.396,161.928 Z M109.144,164.28 C105.728,164.28 104.244,161.62 104.244,158.4 C104.244,153.5 106.652,148.46 111.412,148.46 C114.828,148.46 116.312,151.12 116.312,154.34 C116.312,159.24 114.016,164.28 109.144,164.28 Z M117.74,164 L120.54,150.84 C120.68,150.224 120.708,149.608 120.708,149.132 C120.708,148.964 120.708,148.852 120.68,148.74 L123.032,148.74 L123.032,149.16 C123.032,149.608 123.004,150.14 122.92,150.84 L122.976,150.84 C123.76,149.552 125.132,148.516 126.84,148.516 C127.232,148.516 127.624,148.6 127.988,148.712 L127.204,151.204 C127.036,151.12 126.644,151.036 126.252,151.036 C123.956,151.036 122.668,152.856 122.164,155.32 L120.344,164 Z M131.768,164.224 C129.024,164.224 127.932,163.104 127.932,161.144 C127.932,160.668 128.016,160.164 128.128,159.604 L129.836,151.456 C130.004,150.644 130.172,149.552 130.088,148.74 L132.524,148.74 C132.552,148.992 132.552,149.132 132.552,149.412 C132.552,150.14 132.44,151.008 132.328,151.512 L130.676,159.716 C130.62,160.052 130.564,160.332 130.564,160.584 C130.564,161.564 131.18,161.76 131.796,161.76 C132.16,161.76 132.328,161.676 132.328,161.676 Z M132.104,146.64 C131.236,146.64 130.536,145.968 130.536,145.044 C130.536,144.148 131.236,143.476 132.104,143.476 C132.972,143.476 133.7,144.148 133.7,145.044 C133.7,145.968 132.972,146.64 132.104,146.64 Z M141.652,164.028 C141.12,164.168 140.42,164.308 139.748,164.308 C137.312,164.308 135.996,162.796 135.996,160.556 C135.996,160.052 136.052,159.52 136.164,158.988 L137.872,150.98 L136.052,150.98 L136.556,148.74 L138.348,148.74 L139.216,144.736 L141.792,144.736 L140.952,148.74 L144.116,148.74 L143.612,150.98 L140.448,150.98 L138.712,159.268 C138.628,159.604 138.6,159.856 138.6,160.108 C138.6,161.228 139.188,161.872 140.28,161.872 C140.812,161.872 141.232,161.76 141.624,161.564 Z M155.596,161.592 C154.028,163.216 152.432,164.28 150.276,164.28 C146.552,164.28 144.788,161.648 144.788,158.12 C144.788,153.696 147.504,148.46 151.956,148.46 C155.4,148.46 156.884,150.952 156.884,154.032 C156.884,154.732 156.8,155.488 156.66,156.244 L156.492,157.224 L147.476,157.224 C147.42,157.56 147.42,157.84 147.42,158.148 C147.42,160.556 148.512,161.984 150.416,161.984 C151.76,161.984 153.048,161.088 153.888,159.828 Z M147.84,155.292 L154.336,155.292 C154.364,154.956 154.392,154.592 154.392,154.256 C154.392,152.156 153.552,150.616 151.9,150.616 C149.912,150.616 148.456,152.772 147.84,155.292 Z M177.856,150.952 L175.84,152.52 C175.224,151.344 173.824,150.672 172.424,150.672 C170.996,150.672 169.792,151.372 169.792,152.772 C169.792,155.376 176.512,155.068 176.512,159.492 C176.512,162.32 174.384,164.28 171.136,164.28 C168.56,164.28 166.264,163.048 165.284,161.256 L167.16,159.8 C167.944,161.144 169.68,161.956 171.388,161.956 C172.956,161.956 173.992,161.088 173.992,159.8 C173.992,156.888 167.3,157.504 167.3,152.94 C167.3,150.364 169.372,148.516 172.564,148.516 C174.664,148.516 176.792,149.384 177.856,150.952 Z M190.876,164.168 C188.216,164.168 187.04,163.076 187.04,161.116 C187.04,160.584 187.124,160.108 187.236,159.576 L188.356,154.284 C188.468,153.78 188.524,153.332 188.524,152.856 C188.524,151.652 188.16,150.672 186.564,150.672 C184.94,150.672 183.568,151.652 183.092,153.808 L180.88,164 L178.276,164 L182.616,143.56 L185.22,143.56 L184.352,147.676 C184.1,148.852 183.876,149.86 183.68,150.476 L183.736,150.476 C184.8,149.076 186.032,148.46 187.544,148.46 C189.952,148.46 191.1,150.056 191.1,152.464 C191.1,152.996 191.044,153.864 190.876,154.62 L189.784,159.688 C189.728,159.996 189.672,160.248 189.672,160.528 C189.672,161.34 190.12,161.704 190.876,161.704 C191.072,161.704 191.24,161.676 191.436,161.62 Z M198.828,161.928 C201.404,161.928 203.224,157.952 203.224,154.564 C203.224,152.24 202.3,150.784 200.564,150.784 C198.016,150.784 196.196,154.732 196.196,158.148 C196.196,160.444 197.148,161.928 198.828,161.928 Z M198.576,164.28 C195.16,164.28 193.676,161.62 193.676,158.4 C193.676,153.5 196.084,148.46 200.844,148.46 C204.26,148.46 205.744,151.12 205.744,154.34 C205.744,159.24 203.448,164.28 198.576,164.28 Z M205.968,169.6 C207.256,163.58 208.516,157.504 209.832,151.456 C210.028,150.56 210.112,149.748 210.112,149.216 L210.112,148.74 L212.436,148.74 C212.436,148.74 212.464,148.908 212.464,149.104 C212.464,149.44 212.408,149.944 212.296,150.532 L212.352,150.532 C213.164,149.468 214.452,148.46 216.076,148.46 C218.596,148.46 220.08,150.336 220.08,153.78 C220.08,158.064 217.756,164.28 213.248,164.28 C211.54,164.28 210.56,163.44 210.112,162.208 L210.056,162.208 C210.056,162.208 209.832,163.412 209.608,164.476 L208.544,169.6 Z M210.896,158.512 C210.84,158.82 210.784,159.1 210.784,159.38 C210.784,160.808 211.484,161.984 213.024,161.984 C215.936,161.984 217.504,157.364 217.504,153.864 C217.504,152.016 216.944,150.728 215.32,150.728 C212.912,150.728 211.96,153.556 211.568,155.432 Z M233.716,150.952 L231.7,152.52 C231.084,151.344 229.684,150.672 228.284,150.672 C226.856,150.672 225.652,151.372 225.652,152.772 C225.652,155.376 232.372,155.068 232.372,159.492 C232.372,162.32 230.244,164.28 226.996,164.28 C224.42,164.28 222.124,163.048 221.144,161.256 L223.02,159.8 C223.804,161.144 225.54,161.956 227.248,161.956 C228.816,161.956 229.852,161.088 229.852,159.8 C229.852,156.888 223.16,157.504 223.16,152.94 C223.16,150.364 225.232,148.516 228.424,148.516 C230.524,148.516 232.652,149.384 233.716,150.952 Z M74.634,201.224 C71.89,201.224 70.798,200.104 70.798,198.144 C70.798,197.668 70.882,197.164 70.994,196.604 L72.702,188.456 C72.87,187.644 73.038,186.552 72.954,185.74 L75.39,185.74 C75.418,185.992 75.418,186.132 75.418,186.412 C75.418,187.14 75.306,188.008 75.194,188.512 L73.542,196.716 C73.486,197.052 73.43,197.332 73.43,197.584 C73.43,198.564 74.046,198.76 74.662,198.76 C75.026,198.76 75.194,198.676 75.194,198.676 Z M74.97,183.64 C74.102,183.64 73.402,182.968 73.402,182.044 C73.402,181.148 74.102,180.476 74.97,180.476 C75.838,180.476 76.566,181.148 76.566,182.044 C76.566,182.968 75.838,183.64 74.97,183.64 Z M90.846,198.648 L90.286,201.196 C87.598,201.196 86.478,200.076 86.478,198.116 C86.478,197.612 86.534,197.136 86.646,196.576 L87.794,191.284 C87.906,190.78 87.962,190.276 87.962,189.828 C87.962,188.568 87.486,187.588 86.002,187.588 C83.734,187.588 82.754,189.688 82.138,192.432 C81.494,195.288 80.906,198.144 80.318,201 L77.714,201 L80.514,187.84 C80.654,187.224 80.682,186.608 80.682,186.132 C80.682,185.964 80.682,185.852 80.654,185.74 L83.006,185.74 L83.006,186.104 C83.006,186.468 82.978,187.056 82.894,187.7 L82.95,187.7 C83.79,186.412 85.134,185.516 86.814,185.516 C89.446,185.516 90.538,187.084 90.538,189.464 C90.538,190.052 90.482,190.808 90.342,191.48 L89.222,196.688 C89.138,197.024 89.11,197.304 89.11,197.556 C89.11,198.34 89.502,198.732 90.202,198.732 C90.398,198.732 90.622,198.704 90.846,198.648 Z M103.11,201 L101.458,185.74 L104.37,185.74 L104.79,192.292 C104.93,194.476 105.014,197.052 105.07,197.332 L105.126,197.332 C105.238,197.164 106.19,194.7 107.17,192.656 L110.446,185.74 L113.246,185.74 L105.602,201.28 C103.782,204.976 102.158,206.824 99.582,206.824 C98.322,206.824 97.426,206.544 96.614,205.844 L98.154,203.772 C98.574,204.08 99.05,204.36 99.582,204.36 C101.122,204.36 101.85,203.38 103.11,201 Z M117.978,198.928 C120.554,198.928 122.374,194.952 122.374,191.564 C122.374,189.24 121.45,187.784 119.714,187.784 C117.166,187.784 115.346,191.732 115.346,195.148 C115.346,197.444 116.298,198.928 117.978,198.928 Z M117.726,201.28 C114.31,201.28 112.826,198.62 112.826,195.4 C112.826,190.5 115.234,185.46 119.994,185.46 C123.41,185.46 124.894,188.12 124.894,191.34 C124.894,196.24 122.598,201.28 117.726,201.28 Z M138.894,201.168 C136.29,201.168 135.506,200.244 135.254,198.704 L135.198,198.704 C134.386,200.188 133.21,201.28 131.306,201.28 C128.534,201.28 127.19,199.404 127.19,196.94 C127.19,196.408 127.246,195.876 127.386,195.288 L129.43,185.74 L132.006,185.74 L129.934,195.512 C129.85,195.876 129.794,196.24 129.794,196.576 C129.794,197.948 130.326,199.152 132.09,199.152 C133.966,199.152 135.142,197.136 135.534,195.232 L137.578,185.74 L140.154,185.74 L137.83,196.66 C137.774,196.996 137.718,197.276 137.718,197.528 C137.718,198.34 138.138,198.704 138.922,198.704 C139.09,198.704 139.258,198.676 139.454,198.62 Z M141.638,201 L144.438,187.84 C144.578,187.224 144.606,186.608 144.606,186.132 C144.606,185.964 144.606,185.852 144.578,185.74 L146.93,185.74 L146.93,186.16 C146.93,186.608 146.902,187.14 146.818,187.84 L146.874,187.84 C147.658,186.552 149.03,185.516 150.738,185.516 C151.13,185.516 151.522,185.6 151.886,185.712 L151.102,188.204 C150.934,188.12 150.542,188.036 150.15,188.036 C147.854,188.036 146.566,189.856 146.062,192.32 L144.242,201 Z M158.998,201 L163.142,181.4 L165.802,181.4 L161.658,201 Z M171.79401,186.804 C171.821915,186.804512 171.541957,188.484209 171.262,189.856 L168.91,201 L166.306,201 L170.45,181.4 L172.69,181.4 L175.63,190.948 C176.246,192.964 176.974,195.372 176.974,195.456 L177.03,195.456 C177.03,195.456 177.31,193.496 177.59,192.208 L179.886,181.4 L182.49,181.4 L178.346,201 L176.134,201 L173.166,191.34 C172.606,189.52 171.878,186.916 171.85,186.804 Z M183.274,201 L187.418,181.4 L192.15,181.4 C195.566,181.4 197.274,183.136 197.274,185.796 C197.274,188.344 195.622,190.192 193.438,190.836 L193.438,190.892 C195.034,191.452 196.238,192.796 196.238,194.756 C196.238,198.48 193.382,201 188.902,201 Z M186.382,198.536 L189.238,198.536 C192.094,198.536 193.634,197.192 193.634,194.756 C193.634,193.076 192.682,191.956 190.61,191.956 L187.782,191.956 Z M188.258,189.66 L190.246,189.66 C193.158,189.66 194.642,188.344 194.642,186.16 C194.642,184.62 193.662,183.864 191.562,183.864 L189.518,183.864 Z M204.358,201.28 C200.606,201.28 199.122,198.48 199.122,194.896 C199.122,188.68 201.698,181.12 207.55,181.12 C211.274,181.12 212.758,183.976 212.758,187.532 C212.758,193.776 210.21,201.28 204.358,201.28 Z M204.582,198.816 C207.942,198.816 210.182,192.88 210.182,187.868 C210.182,185.404 209.482,183.612 207.326,183.612 C203.938,183.612 201.726,189.604 201.726,194.56 C201.726,197.024 202.426,198.816 204.582,198.816 Z M220.738,201 L219.758,196.24 C219.45,194.756 219.226,193.188 219.226,193.188 L219.17,193.188 C218.862,193.72 218.358,194.672 217.378,196.268 L214.438,201 L211.778,201 L217.966,191.2 L215.894,181.4 L218.526,181.4 L219.366,185.628 C219.674,187.252 220.01,189.268 220.01,189.296 L220.066,189.296 C220.15,189.156 221.074,187.476 222.194,185.656 L224.798,181.4 L227.654,181.4 L221.41,191.2 L223.51,201 Z M227.234,195.848 L230.314,181.4 L232.89,181.4 L229.838,195.848 Z M227.682,201.28 C226.814,201.28 226.114,200.608 226.114,199.684 C226.114,198.788 226.814,198.116 227.682,198.116 C228.55,198.116 229.278,198.788 229.278,199.684 C229.278,200.608 228.55,201.28 227.682,201.28 Z M227.682,201.28" id="Get the " fill="#FFFFFF"></path>
            <path d="M77.582,262.144 C75.818,262.144 75.116,261.406 75.116,260.164 C75.116,259.858 75.17,259.534 75.242,259.174 L77.42,248.86 L79.094,248.86 L76.898,259.246 C76.844,259.462 76.808,259.696 76.808,259.858 C76.808,260.308 77.078,260.56 77.6,260.56 C77.708,260.56 77.816,260.542 77.942,260.506 Z M72.092,258.526 L73.424,259.498 C72.56,261.1 71.282,262.18 69.446,262.18 C67.052,262.18 66.098,260.362 66.098,258.076 C66.098,254.8 67.412,249.22 71.498,249.22 C73.532,249.22 74.522,250.534 74.774,252.334 L73.19,253.054 C73.1,251.722 72.578,250.804 71.372,250.804 C68.834,250.804 67.754,255.502 67.754,257.932 C67.754,259.48 68.258,260.596 69.59,260.596 C70.67,260.596 71.498,259.768 72.092,258.526 Z M82.478,262.144 C80.714,262.144 80.012,261.424 80.012,260.164 C80.012,259.858 80.066,259.534 80.138,259.174 L81.236,253.936 C81.344,253.414 81.452,252.712 81.398,252.19 L82.964,252.19 C82.982,252.352 82.982,252.442 82.982,252.622 C82.982,253.09 82.91,253.648 82.838,253.972 L81.776,259.246 C81.74,259.462 81.704,259.642 81.704,259.804 C81.704,260.434 82.1,260.56 82.496,260.56 C82.73,260.56 82.838,260.506 82.838,260.506 Z M82.694,250.84 C82.136,250.84 81.686,250.408 81.686,249.814 C81.686,249.238 82.136,248.806 82.694,248.806 C83.252,248.806 83.72,249.238 83.72,249.814 C83.72,250.408 83.252,250.84 82.694,250.84 Z M91.226,260.254 C90.416,261.46 89.57,262.18 88.058,262.18 C86.006,262.18 84.854,260.722 84.854,258.472 C84.854,255.664 86.222,252.01 89.426,252.01 C90.992,252.01 91.91,252.946 92.306,254.224 L90.866,255.16 C90.758,254.17 90.2,253.576 89.3,253.576 C87.554,253.576 86.528,256.204 86.528,258.238 C86.528,259.858 87.122,260.632 88.202,260.632 C88.976,260.632 89.588,260.056 90.128,259.174 Z M100.046,260.506 L99.704,262.018 C99.578,262.018 99.326,262.072 99.02,262.072 C97.886,262.072 97.202,261.64 96.626,260.686 C95.996,259.66 95.834,258.508 95.078,258.274 L95.042,258.274 C95.006,258.49 94.934,258.976 94.808,259.588 L94.286,262 L92.63,262 L95.42,248.86 L97.076,248.86 L96.5,251.578 C96.32,252.424 96.194,252.928 96.086,253.288 L96.122,253.288 C96.662,252.55 97.454,252.01 98.462,252.01 C99.974,252.01 100.694,253.018 100.694,254.26 C100.694,255.88 99.38,257.878 96.824,258.202 C96.824,258.22 96.806,258.22 96.806,258.238 C97.706,258.814 97.724,260.596 99.29,260.596 C99.578,260.596 99.794,260.56 100.046,260.506 Z M95.312,257.212 C97.85,257.212 99.038,255.844 99.038,254.53 C99.038,253.864 98.624,253.378 97.85,253.378 C96.734,253.378 95.906,254.404 95.6,255.844 Z M114.644,260.47 L114.284,262.108 C112.574,262.108 111.818,261.406 111.818,260.146 C111.818,259.804 111.872,259.498 111.944,259.156 L112.664,255.754 C112.736,255.43 112.772,255.142 112.772,254.836 C112.772,254.062 112.538,253.432 111.512,253.432 C110.468,253.432 109.586,254.062 109.28,255.448 L107.858,262 L106.184,262 L108.974,248.86 L110.648,248.86 L110.09,251.506 C109.928,252.262 109.784,252.91 109.658,253.306 L109.694,253.306 C110.378,252.406 111.17,252.01 112.142,252.01 C113.69,252.01 114.428,253.036 114.428,254.584 C114.428,254.926 114.392,255.484 114.284,255.97 L113.582,259.228 C113.546,259.426 113.51,259.588 113.51,259.768 C113.51,260.29 113.798,260.524 114.284,260.524 C114.41,260.524 114.518,260.506 114.644,260.47 Z M123.086,260.452 C122.078,261.496 121.052,262.18 119.666,262.18 C117.272,262.18 116.138,260.488 116.138,258.22 C116.138,255.376 117.884,252.01 120.746,252.01 C122.96,252.01 123.914,253.612 123.914,255.592 C123.914,256.042 123.86,256.528 123.77,257.014 L123.662,257.644 L117.866,257.644 C117.83,257.86 117.83,258.04 117.83,258.238 C117.83,259.786 118.532,260.704 119.756,260.704 C120.62,260.704 121.448,260.128 121.988,259.318 Z M118.1,256.402 L122.276,256.402 C122.294,256.186 122.312,255.952 122.312,255.736 C122.312,254.386 121.772,253.396 120.71,253.396 C119.432,253.396 118.496,254.782 118.1,256.402 Z M124.85,262 L126.65,253.54 C126.74,253.144 126.758,252.748 126.758,252.442 C126.758,252.334 126.758,252.262 126.74,252.19 L128.252,252.19 L128.252,252.46 C128.252,252.748 128.234,253.09 128.18,253.54 L128.216,253.54 C128.72,252.712 129.602,252.046 130.7,252.046 C130.952,252.046 131.204,252.1 131.438,252.172 L130.934,253.774 C130.826,253.72 130.574,253.666 130.322,253.666 C128.846,253.666 128.018,254.836 127.694,256.42 L126.524,262 Z M137.99,260.452 C136.982,261.496 135.956,262.18 134.57,262.18 C132.176,262.18 131.042,260.488 131.042,258.22 C131.042,255.376 132.788,252.01 135.65,252.01 C137.864,252.01 138.818,253.612 138.818,255.592 C138.818,256.042 138.764,256.528 138.674,257.014 L138.566,257.644 L132.77,257.644 C132.734,257.86 132.734,258.04 132.734,258.238 C132.734,259.786 133.436,260.704 134.66,260.704 C135.524,260.704 136.352,260.128 136.892,259.318 Z M133.004,256.402 L137.18,256.402 C137.198,256.186 137.216,255.952 137.216,255.736 C137.216,254.386 136.676,253.396 135.614,253.396 C134.336,253.396 133.4,254.782 133.004,256.402 Z M148.79,260.434 L148.808,262.018 C148.466,262.108 148.016,262.198 147.584,262.198 C146.018,262.198 145.172,261.226 145.172,259.786 C145.172,259.462 145.208,259.12 145.28,258.778 L146.378,253.63 L145.208,253.63 L145.532,252.19 L146.684,252.19 L147.242,249.616 L148.898,249.616 L148.358,252.19 L150.392,252.19 L150.068,253.63 L148.034,253.63 L146.918,258.958 C146.864,259.174 146.846,259.336 146.846,259.498 C146.846,260.218 147.224,260.632 147.926,260.632 C148.268,260.632 148.538,260.56 148.79,260.434 Z M154.082,260.668 C155.738,260.668 156.908,258.112 156.908,255.934 C156.908,254.44 156.314,253.504 155.198,253.504 C153.56,253.504 152.39,256.042 152.39,258.238 C152.39,259.714 153.002,260.668 154.082,260.668 Z M153.92,262.18 C151.724,262.18 150.77,260.47 150.77,258.4 C150.77,255.25 152.318,252.01 155.378,252.01 C157.574,252.01 158.528,253.72 158.528,255.79 C158.528,258.94 157.052,262.18 153.92,262.18 Z M171.992,253.612 L170.696,254.62 C170.3,253.864 169.4,253.432 168.5,253.432 C167.582,253.432 166.808,253.882 166.808,254.782 C166.808,256.456 171.128,256.258 171.128,259.102 C171.128,260.92 169.76,262.18 167.672,262.18 C166.016,262.18 164.54,261.388 163.91,260.236 L165.116,259.3 C165.62,260.164 166.736,260.686 167.834,260.686 C168.842,260.686 169.508,260.128 169.508,259.3 C169.508,257.428 165.206,257.824 165.206,254.89 C165.206,253.234 166.538,252.046 168.59,252.046 C169.94,252.046 171.308,252.604 171.992,253.612 Z M180.344,262.108 C178.67,262.108 178.166,261.514 178.004,260.524 L177.968,260.524 C177.446,261.478 176.69,262.18 175.466,262.18 C173.684,262.18 172.82,260.974 172.82,259.39 C172.82,259.048 172.856,258.706 172.946,258.328 L174.26,252.19 L175.916,252.19 L174.584,258.472 C174.53,258.706 174.494,258.94 174.494,259.156 C174.494,260.038 174.836,260.812 175.97,260.812 C177.176,260.812 177.932,259.516 178.184,258.292 L179.498,252.19 L181.154,252.19 L179.66,259.21 C179.624,259.426 179.588,259.606 179.588,259.768 C179.588,260.29 179.858,260.524 180.362,260.524 C180.47,260.524 180.578,260.506 180.704,260.47 Z M182.846,257.428 L184.682,248.86 L186.338,248.86 L185.726,251.74 C185.582,252.406 185.366,253.252 185.366,253.252 L185.402,253.252 C185.87,252.568 186.572,252.01 187.652,252.01 C189.254,252.01 190.208,253.18 190.208,255.376 C190.208,258.994 188.372,262.18 185.546,262.18 C183.89,262.18 182.666,261.1 182.666,258.94 C182.666,258.49 182.72,257.986 182.846,257.428 Z M184.412,257.86 C184.34,258.22 184.304,258.544 184.304,258.85 C184.304,259.984 184.826,260.632 185.762,260.632 C187.562,260.632 188.552,257.446 188.552,255.43 C188.552,254.26 188.192,253.486 187.13,253.486 C185.834,253.486 185.078,254.8 184.826,255.952 Z M197.66,254.62 C197.264,253.864 196.364,253.432 195.464,253.432 C194.546,253.432 193.772,253.882 193.772,254.782 C193.772,256.456 198.092,256.258 198.092,259.102 C198.092,260.92 196.724,262.18 194.636,262.18 C192.98,262.18 191.504,261.388 190.874,260.236 L192.08,259.3 C192.584,260.164 193.7,260.686 194.798,260.686 C195.806,260.686 196.472,260.128 196.472,259.3 C196.472,257.428 192.17,257.824 192.17,254.89 C192.17,253.234 193.502,252.046 195.554,252.046 C196.904,252.046 198.272,252.604 198.956,253.612 Z M205.994,260.254 C205.184,261.46 204.338,262.18 202.826,262.18 C200.774,262.18 199.622,260.722 199.622,258.472 C199.622,255.664 200.99,252.01 204.194,252.01 C205.76,252.01 206.678,252.946 207.074,254.224 L205.634,255.16 C205.526,254.17 204.968,253.576 204.068,253.576 C202.322,253.576 201.296,256.204 201.296,258.238 C201.296,259.858 201.89,260.632 202.97,260.632 C203.744,260.632 204.356,260.056 204.896,259.174 Z M207.398,262 L209.198,253.54 C209.288,253.144 209.306,252.748 209.306,252.442 C209.306,252.334 209.306,252.262 209.288,252.19 L210.8,252.19 L210.8,252.46 C210.8,252.748 210.782,253.09 210.728,253.54 L210.764,253.54 C211.268,252.712 212.15,252.046 213.248,252.046 C213.5,252.046 213.752,252.1 213.986,252.172 L213.482,253.774 C213.374,253.72 213.122,253.666 212.87,253.666 C211.394,253.666 210.566,254.836 210.242,256.42 L209.072,262 Z M216.776,260.506 L216.416,262.144 C214.652,262.144 213.95,261.424 213.95,260.164 C213.95,259.858 214.004,259.534 214.076,259.174 L215.174,253.936 C215.282,253.414 215.39,252.712 215.336,252.19 L216.902,252.19 C216.92,252.352 216.92,252.442 216.92,252.622 C216.92,253.09 216.848,253.648 216.776,253.972 L215.714,259.246 C215.678,259.462 215.642,259.642 215.642,259.804 C215.642,260.434 216.038,260.56 216.434,260.56 C216.668,260.56 216.776,260.506 216.776,260.506 Z M216.632,250.84 C216.074,250.84 215.624,250.408 215.624,249.814 C215.624,249.238 216.074,248.806 216.632,248.806 C217.19,248.806 217.658,249.238 217.658,249.814 C217.658,250.408 217.19,250.84 216.632,250.84 Z M219.134,257.428 L220.97,248.86 L222.626,248.86 L222.014,251.74 C221.87,252.406 221.654,253.252 221.654,253.252 L221.69,253.252 C222.158,252.568 222.86,252.01 223.94,252.01 C225.542,252.01 226.496,253.18 226.496,255.376 C226.496,258.994 224.66,262.18 221.834,262.18 C220.178,262.18 218.954,261.1 218.954,258.94 C218.954,258.49 219.008,257.986 219.134,257.428 Z M220.7,257.86 C220.628,258.22 220.592,258.544 220.592,258.85 C220.592,259.984 221.114,260.632 222.05,260.632 C223.85,260.632 224.84,257.446 224.84,255.43 C224.84,254.26 224.48,253.486 223.418,253.486 C222.122,253.486 221.366,254.8 221.114,255.952 Z M234.704,260.452 C233.696,261.496 232.67,262.18 231.284,262.18 C228.89,262.18 227.756,260.488 227.756,258.22 C227.756,255.376 229.502,252.01 232.364,252.01 C234.578,252.01 235.532,253.612 235.532,255.592 C235.532,256.042 235.478,256.528 235.388,257.014 L235.28,257.644 L229.484,257.644 C229.448,257.86 229.448,258.04 229.448,258.238 C229.448,259.786 230.15,260.704 231.374,260.704 C232.238,260.704 233.066,260.128 233.606,259.318 Z M229.718,256.402 L233.894,256.402 C233.912,256.186 233.93,255.952 233.93,255.736 C233.93,254.386 233.39,253.396 232.328,253.396 C231.05,253.396 230.114,254.782 229.718,256.402 Z M229.718,256.402" id="Click here to subscr" fill="#FFFFFF"></path>
        </g>
    </g>
</svg>