<?xml version="1.0" encoding="UTF-8" standalone="no"?>
<svg width="48px" height="48px" viewBox="0 0 48 48" version="1.1" xmlns="http://www.w3.org/2000/svg" xmlns:xlink="http://www.w3.org/1999/xlink" xmlns:sketch="http://www.bohemiancoding.com/sketch/ns">
    <title>icon-flipbook-nearby</title>
    <description>Created with Sketch (http://www.bohemiancoding.com/sketch)</description>
    <defs></defs>
    <g id="icon-flipbook-nearby" stroke="none" stroke-width="1" fill="none" fill-rule="evenodd">
        <g>
            <g id="Group" transform="translate(0.000000, 2.000000)">
                <path d="M35,14 L35,35 L6,35 L6,14 L0,14 L3.65237437,4 L34.2571716,4 L38,14 Z M35,14" id="Rectangle 1" fill="#9AB6D4"></path>
                <path d="M36,14.1391602 L36,34.9524154 L7.25968108,4.13916016 L35.2571716,4.13916016 L39,14.1391602 Z M36,14.1391602" id="Rectangle 1" fill="#5A7FA8"></path>
                <path d="M10,22 L10,29 L17,29 L17,22 L10,22 Z M10,22" id="Rectangle 2" fill="#1C3755"></path>
                <path d="M21,22 L21,34 L28,34 L28,22 L21,22 Z M21,22" id="Rectangle 2" fill="#1C3755"></path>
                <path d="M6,0 L6,2 L33,2 L33,0 L6,0 Z M6,0" id="Rectangle 4" fill="#5A7FA7"></path>
                <path d="M6,4 L10,4 L10,14 C10,15.1045696 9.10456955,16 8,16 C6.89543045,16 6,15.1045696 6,14 Z M31,4 L35,4 L35,14 C35,15.1045696 34.1045696,16 33,16 C31.8954304,16 31,15.1045696 31,14 Z M23,4 L27,4 L27,14 C27,15.1045696 26.1045696,16 25,16 C23.8954304,16 23,15.1045696 23,14 Z M14,4 L18,4 L18,14 C18,15.1045696 17.1045696,16 16,16 C14.8954304,16 14,15.1045696 14,14 Z M14,4" id="Rectangle 5" fill="#1C3755"></path>
            </g>
            <path d="M37.5,20.6728967 C36.0340852,20.0053366 35,18.3885253 35,16.5 C35,14.0147185 36.7908609,12 39,12 C41.2091391,12 43,14.0147185 43,16.5 C43,18.3885253 41.9659148,20.0053366 40.5,20.6728967 L40.5,21.5 L41.1748543,21.5 C41.893921,21.4234748 44.1701987,21.2722731 45.4688721,22.2324219 C46.3702289,22.8988225 46.7419504,24.167318 46.8946198,25.0472607 C46.9621173,25.1812145 47,25.3325211 47,25.4926872 L47,37.0073128 C47,37.5508308 46.5522847,38 46,38 C45.4438648,38 45,37.5555588 45,37.0073128 L45,26 L43.5,26 L43.5,34.9933615 L43.5,36.0097145 L43.5,48.5066338 C43.5,49.3327445 42.8284271,50 42,50 C41.1657972,50 40.5,49.3313972 40.5,48.5066338 L40.5,38 L37.5,38 L37.5,48.5066338 C37.5,49.3327445 36.8284271,50 36,50 C35.1657972,50 34.5,49.3313972 34.5,48.5066338 L34.5,36.0097176 L34.5,34.9933662 L34.5,26 L33,26 L33,37.0073128 C33,37.5508308 32.5522847,38 32,38 C31.4438648,38 31,37.5555588 31,37.0073128 L31,25.4926872 C31,25.1849573 31.1435203,24.907472 31.3682814,24.7246298 C31.5520528,23.879232 31.9349929,22.8209926 32.7310791,22.2324219 C34.0297524,21.2722731 36.3060302,21.4234748 37.0250969,21.5 L37.5,21.5 Z M37.5,20.6728967" id="Rectangle 5" fill="#FFFFFF"></path>
        </g>
    </g>
</svg>