<?xml version="1.0" encoding="UTF-8" standalone="no"?>
<svg width="48px" height="48px" viewBox="0 0 48 48" version="1.1" xmlns="http://www.w3.org/2000/svg" xmlns:xlink="http://www.w3.org/1999/xlink" xmlns:sketch="http://www.bohemiancoding.com/sketch/ns">
    <title>icon-flipbook-info</title>
    <description>Created with Sketch (http://www.bohemiancoding.com/sketch)</description>
    <defs></defs>
    <g id="icon-flipbook-info" stroke="none" stroke-width="1" fill="none" fill-rule="evenodd">
        <g id="Rectangle 1">
            <path d="M10.9804688,4 C17.46875,4 24,9.85714286 24,9.85714286 C24,9.85714286 30.53125,4 37.0195312,4 C42.53125,4.00000122 48,9.85714286 48,9.85714286 L48,45 C48,45 42.6240234,39.9529332 37.0195312,39.9529332 C34.1940012,39.9529332 31.3238681,40.9380525 29,42.0378642 L29,28 L19,28 L19,42.0378642 C16.6761319,40.9380525 13.8059988,39.9529332 10.9804688,39.9529332 C5.37597657,39.9529332 0,45 0,45 L0,9.85714286 C0,9.85714286 5.46875002,4.00000122 10.9804688,4 Z M24,24 C26.7614239,24 29,21.7614239 29,19 C29,16.2385761 26.7614239,14 24,14 C21.2385761,14 19,16.2385761 19,19 C19,21.7614239 21.2385761,24 24,24 Z M24,24" fill="#FFFFFF"></path>
            <path d="M10.9804688,4 C17.46875,4 24,9.85714286 24,9.85714286 L24,13.9999984 C21.2385761,14 19,16.2385761 19,19 C19,21.7614239 21.2385761,24 24,24 L24,28 L19,28 L19,42.0378642 C16.6761319,40.9380525 13.8059988,39.9529332 10.9804688,39.9529332 C5.37597657,39.9529332 0,45 0,45 L0,9.85714286 C0,9.85714286 5.46875002,4.00000122 10.9804688,4 Z M10.9804688,4" fill="#9AB6D4"></path>
        </g>
    </g>
</svg>