<?xml version="1.0" encoding="UTF-8" standalone="no"?>
<svg width="32px" height="32px" viewBox="0 0 32 32" version="1.1" xmlns="http://www.w3.org/2000/svg" xmlns:xlink="http://www.w3.org/1999/xlink" xmlns:sketch="http://www.bohemiancoding.com/sketch/ns">
    <title>icon-sidebar-top25</title>
    <description>Created with Sketch (http://www.bohemiancoding.com/sketch)</description>
    <defs></defs>
    <g id="icon-sidebar-top25" stroke="none" stroke-width="1" fill="none" fill-rule="evenodd">
        <g>
            <path d="M2.36422293,13.61218 C0.904127584,12.162839 0,10.1541678 0,7.93432617 C0,3.51604795 3.58172178,-0.0656738281 8,-0.0656738281 C11.8626731,-0.0656738281 15.0859574,2.67187355 15.8355369,6.31263698 L16,6.24731445 L16,6.24267578 L16.1628061,6.3207058 C16.9092891,2.67591246 20.1344785,-0.0656738281 24,-0.0656738281 C28.4182782,-0.0656738281 32,3.51604795 32,7.93432617 C32,10.256238 31.0108158,12.3471134 29.4308969,13.8085045 L16,32 Z M2.36422293,13.61218" id="Oval 1" fill="#1C3755"></path>
            <g id="Group" transform="translate(9.000000, 8.000000)">
                <path d="M12,6 L12,12 L2,12 L2,6 L0,6 L1.34561161,2 L12.6210632,2 L14,6 Z M12,6" id="Rectangle 1" fill="#FFFFFF"></path>
                <path d="M3,6 L3,10 L7,10 L7,6 L3,6 Z M3,6" id="Rectangle 2" fill="#1C3755"></path>
                <path d="M8,6 L8,12 L11,12 L11,6 L8,6 Z M8,6" id="Rectangle 2" fill="#1C3755"></path>
            </g>
        </g>
    </g>
</svg>