<?xml version="1.0" encoding="iso-8859-1"?>
<!-- Generator: Adobe Illustrator 16.2.1, SVG Export Plug-In . SVG Version: 6.00 Build 0)  -->
<!DOCTYPE svg PUBLIC "-//W3C//DTD SVG 1.1 Tiny//EN" "http://www.w3.org/Graphics/SVG/1.1/DTD/svg11-tiny.dtd">
<svg version="1.1" baseProfile="tiny" id="Layer_1" xmlns="http://www.w3.org/2000/svg" xmlns:xlink="http://www.w3.org/1999/xlink"
	 x="0px" y="0px" width="45px" height="45px" viewBox="0 0 45 45" xml:space="preserve">
<g>
	<polygon fill="none" points="32.366,26.072 29,22.707 29,29.438 	"/>
	<polygon fill="none" points="33.78,24.658 38,20.438 38,14.59 29.021,12.758 29,13 29,19.878 	"/>
	<polygon fill="none" points="29,32.266 29,33.879 32.412,37.29 38,38.578 38,31.706 33.78,27.486 	"/>
	<polygon fill="none" points="38,28.878 38,23.267 35.194,26.072 	"/>
	<path fill="none" d="M14.413,30.878c0.558,0,1.085,0.112,1.587,0.279v-7.451l-0.646-0.646L7,31.415v6.089l2.898,0.668
		c-0.336-0.677-0.543-1.43-0.543-2.236C9.355,33.143,11.62,30.878,14.413,30.878z"/>
	<polygon fill="none" points="16,19.587 16,15.59 9.355,14.234 15.354,20.232 	"/>
	<polygon fill="none" points="7,14.707 7,28.587 13.94,21.646 	"/>
	<path fill="none" d="M18,25.706v6.667c0.908,0.914,1.47,2.172,1.47,3.562c0,1.318-0.517,2.508-1.343,3.408l1.395-0.429l5.843-5.843
		L18,25.706z"/>
	<polygon fill="none" points="23.604,37.661 27,36.618 27,34.707 26.779,34.486 	"/>
	<polygon fill="none" points="23.343,28.221 26.779,31.658 27,31.438 27,24.564 	"/>
	<polygon fill="none" points="27,17.878 27,13 27,12.71 25.131,13.285 23.769,14.647 	"/>
	<polygon fill="none" points="20.883,14.59 18,15.476 18,17.587 20.94,14.647 	"/>
	<polygon fill="none" points="22.354,16.061 18,20.416 18,22.879 21.929,26.807 27,21.736 27,20.707 	"/>
	<polygon points="18,15.476 20.883,14.59 19.283,12.99 16.858,13.736 18,14 	"/>
	<polygon points="23.951,11.636 25.365,13.05 25.131,13.285 27,12.71 27,10.615 21.446,12.324 22.354,13.233 	"/>
	<path d="M27,36.618l-3.396,1.043l-2.924,2.924l-1.414-1.414l0.256-0.256l-1.395,0.429c-0.045,0.049-0.081,0.106-0.127,0.154v1.98
		l10.143-3.121L27,38.094V36.618z"/>
	<path d="M14.413,40.992c-1.986,0-3.688-1.155-4.515-2.82L7,37.504v-6.089l-0.112,0.112l-1.414-1.414L7,28.587v-13.88L5.474,13.18
		l1.414-1.414l2.468,2.468L16,15.59V14l0.858-0.264L5.022,11H5v28.094l11,2.538v-0.919C15.498,40.88,14.971,40.992,14.413,40.992z"
		/>
	<polygon points="16.769,21.646 18,22.879 18,20.416 	"/>
	<polygon points="16,15.59 16,19.587 18,17.587 18,15.476 18,14 16.858,13.736 16,14 	"/>
	<path d="M16,40.713v0.919l0.857,0.198L18,41.479v-1.98C17.448,40.054,16.76,40.461,16,40.713z"/>
	<path d="M16,31.157c0.76,0.253,1.448,0.66,2,1.216v-6.667l-2-2V31.157z"/>
	<polygon points="38,38.578 32.412,37.29 35.08,39.958 40,41.094 40,33.706 38,31.706 	"/>
	<polygon points="29,10.458 29,13 29.021,12.758 38,14.59 38,20.438 38.824,19.614 40,20.789 40,13 	"/>
	<polygon points="29,38.094 28.143,38.357 31.403,39.11 29,36.707 	"/>
	<polygon points="38,28.878 40,30.878 40,21.266 38,23.267 	"/>
	<polygon points="27,20.707 27,21.736 27.515,21.221 	"/>
	<polygon points="29,33.879 29,32.266 28.193,33.072 	"/>
	<polygon points="27,24.564 27,31.438 29,29.438 29,22.707 28.929,22.635 	"/>
	<polygon points="29,36.707 27,34.707 27,36.618 27,38.094 28.143,38.357 29,38.094 	"/>
	<polygon points="27,13 27,17.878 29,19.878 29,13 29,10.458 28.151,10.261 27,10.615 27,12.71 	"/>
	<polygon fill="#CCCCCC" points="29,19.878 29,22.707 32.366,26.072 29,29.438 29,32.266 33.78,27.486 38,31.706 38,28.878 
		35.194,26.072 38,23.267 38,20.438 33.78,24.658 	"/>
	<polygon fill="#CCCCCC" points="29,36.504 32.412,37.29 29,33.879 	"/>
	<polygon fill="#CCCCCC" points="16,23.706 16,19.587 15.354,20.232 9.355,14.234 7.022,13.758 7,14 7,14.707 13.94,21.646 
		7,28.587 7,31.415 15.354,23.061 	"/>
	<polygon fill="#CCCCCC" points="26.779,31.658 23.343,28.221 27,24.564 27,21.736 21.929,26.807 18,22.879 18,25.706 
		25.365,33.072 19.522,38.915 23.604,37.661 26.779,34.486 27,34.707 27,31.438 	"/>
	<polygon fill="#CCCCCC" points="22.354,16.061 27,20.707 27,17.878 23.769,14.647 25.131,13.285 20.883,14.59 20.94,14.647 
		18,17.587 18,20.416 	"/>
	<polygon points="25.131,13.285 25.365,13.05 23.951,11.636 22.354,13.233 21.446,12.324 19.283,12.99 20.883,14.59 	"/>
	<polygon points="19.267,39.171 20.681,40.585 23.604,37.661 19.522,38.915 	"/>
	<polygon points="7.022,13.758 9.355,14.234 6.888,11.766 5.474,13.18 7,14.707 7,14 	"/>
	<polygon points="5.474,30.113 6.888,31.527 7,31.415 7,28.587 	"/>
	<polygon points="18,25.706 18,22.879 16.769,21.646 18,20.416 18,17.587 16,19.587 16,23.706 	"/>
	<polygon points="38,20.438 38,23.267 40,21.266 40,20.789 38.824,19.614 	"/>
	<polygon points="38,31.706 40,33.706 40,30.878 38,28.878 	"/>
	<polygon points="29,36.504 29,36.707 31.403,39.11 35.08,39.958 32.412,37.29 	"/>
	<polygon points="27.515,21.221 27,21.736 27,24.564 28.929,22.635 29,22.707 29,19.878 27,17.878 27,20.707 	"/>
	<polygon points="28.193,33.072 29,32.266 29,29.438 27,31.438 27,34.707 29,36.707 29,36.504 29,33.879 	"/>
	<path fill="#CCCCCC" d="M16,31.157c-0.502-0.167-1.029-0.279-1.587-0.279c-2.793,0-5.058,2.265-5.058,5.058
		c0,0.807,0.207,1.56,0.543,2.236L16,39.578V31.157z"/>
	<path fill="#CCCCCC" d="M18,39.498c0.047-0.048,0.082-0.105,0.127-0.154L18,39.383V39.498z"/>
	<path d="M9.898,38.172c0.827,1.665,2.528,2.82,4.515,2.82c0.558,0,1.085-0.112,1.587-0.279v-1.135L9.898,38.172z"/>
	<path d="M18,32.373c-0.552-0.556-1.24-0.963-2-1.216v8.421v1.135c0.76-0.252,1.448-0.659,2-1.215v-0.115V32.373z"/>
</g>
<g>
	<g>
		<path d="M23.269,2.125c-0.091,0-0.179,0.011-0.269,0.014v24.16l0.164,0.217l6.615-8.409c1.731-1.692,2.809-4.05,2.809-6.662
			C32.588,6.297,28.416,2.125,23.269,2.125z"/>
		<path fill="#353535" d="M13.949,11.444c0,2.658,1.118,5.05,2.903,6.748L23,26.299V2.139C17.979,2.282,13.949,6.388,13.949,11.444z
			"/>
	</g>
	<circle fill="#FFFFFF" cx="23.29" cy="8.366" r="2.998"/>
</g>
</svg>
