<?xml version="1.0" encoding="UTF-8" standalone="no"?>
<svg width="16px" height="16px" viewBox="0 0 16 16" version="1.1" xmlns="http://www.w3.org/2000/svg" xmlns:xlink="http://www.w3.org/1999/xlink" xmlns:sketch="http://www.bohemiancoding.com/sketch/ns">
    <title>icon-footer-towncities</title>
    <description>Created with Sketch (http://www.bohemiancoding.com/sketch)</description>
    <defs></defs>
    <g id="icon-footer-townscities" stroke="none" stroke-width="1" fill="none" fill-rule="evenodd">
        <g id="icon-footer-towncities">
            <path d="M0,0 L0,16 L5,16 L5,0 L0,0 Z M0,0" id="Rectangle 1" fill="#BCBCBC"></path>
            <path d="M5,5 L5,16 L9,16 L9,5 L5,5 Z M5,5" id="Rectangle 1" fill="#D6D6D6"></path>
            <path d="M2,2 L2,4 L4,4 L4,2 L2,2 Z M2,2" id="Rectangle 2" fill="#D8D8D8"></path>
            <path d="M2,6 L2,8 L4,8 L4,6 L2,6 Z M2,6" id="Rectangle 2" fill="#D8D8D8"></path>
            <path d="M2,10 L2,12 L4,12 L4,10 L2,10 Z M2,10" id="Rectangle 2" fill="#D8D8D8"></path>
            <path d="M9,8 L9,16 L16,16 L16,8 L9,8 Z M9,8" id="Rectangle 1" fill="#BCBCBC"></path>
            <path d="M12,12 L12,14 L14,14 L14,12 L12,12 Z M12,12" id="Rectangle 2" fill="#D8D8D8"></path>
            <path d="M11,10 L11,12 L13,12 L13,10 L11,10 Z M11,10" id="Rectangle 2" fill="#D8D8D8"></path>
            <path d="M7,7 L7,8 L8,8 L8,7 L7,7 Z M7,7" id="Rectangle 6" fill="#FFFFFF"></path>
            <path d="M7,9 L7,10 L8,10 L8,9 L7,9 Z M7,9" id="Rectangle 6" fill="#FFFFFF"></path>
            <path d="M7,11 L7,12 L8,12 L8,11 L7,11 Z M7,11" id="Rectangle 6" fill="#FFFFFF"></path>
            <path d="M7,13 L7,14 L8,14 L8,13 L7,13 Z M7,13" id="Rectangle 6" fill="#FFFFFF"></path>
        </g>
    </g>
</svg>