<?xml version="1.0" encoding="UTF-8" standalone="no"?>
<svg width="32px" height="32px" viewBox="0 0 32 32" version="1.1" xmlns="http://www.w3.org/2000/svg" xmlns:xlink="http://www.w3.org/1999/xlink" xmlns:sketch="http://www.bohemiancoding.com/sketch/ns">
    <title>icon-feature-popular</title>
    <description>Created with Sketch (http://www.bohemiancoding.com/sketch)</description>
    <defs></defs>
    <g id="icon-feature-popular" stroke="none" stroke-width="1" fill="none" fill-rule="evenodd">
        <g>
            <path d="M2.36422293,13.61218 C0.904127584,12.162839 0,10.1541678 0,7.93432617 C0,3.51604795 3.58172178,-0.0656738281 8,-0.0656738281 C11.8626731,-0.0656738281 15.0859574,2.67187355 15.8355369,6.31263698 L16,6.24731445 L16,6.24267578 L16.1628061,6.3207058 C16.9092891,2.67591246 20.1344785,-0.0656738281 24,-0.0656738281 C28.4182782,-0.0656738281 32,3.51604795 32,7.93432617 C32,10.256238 31.0108158,12.3471134 29.4308969,13.8085045 L16,32 Z M2.36422293,13.61218" id="Oval 1" fill="#1C3755"></path>
            <path d="M13.2875977,10 C14.6393229,10 16,11.2857143 16,11.2857143 C16,11.2857143 16.4166678,10.8155091 17,10.4438098 L17,13 L17,15 L18,13.6780187 L18,13 L19,13 L19,13.6780187 L20,15 L20,13 L20,10.5508385 C20.5915932,10.8998075 21,11.2857143 21,11.2857143 L21,19 C21,19 19.6199951,17.8921073 18.2875977,17.8921073 C17.1199951,17.8921073 16,19 16,19 C16,19 14.6199951,17.8921073 13.2875977,17.8921073 C12.1199951,17.8921073 11,19 11,19 L11,11.2857143 C11,11.2857143 12.1393229,10.0000003 13.2875977,10 Z M13.2875977,10" id="Rectangle 1" fill="#FFFFFF"></path>
        </g>
    </g>
</svg>