<?xml version="1.0" encoding="UTF-8" standalone="no"?>
<svg width="48px" height="48px" viewBox="0 0 48 48" version="1.1" xmlns="http://www.w3.org/2000/svg" xmlns:xlink="http://www.w3.org/1999/xlink" xmlns:sketch="http://www.bohemiancoding.com/sketch/ns">
    <title>icon-flipbook-search</title>
    <description>Created with Sketch (http://www.bohemiancoding.com/sketch)</description>
    <defs></defs>
    <g id="icon-flipbook-search" stroke="none" stroke-width="1" fill="none" fill-rule="evenodd">
        <g>
            <path d="M36.8654788,29.794411 L47.8994949,40.8284271 L40.8284271,47.8994949 L29.794411,36.8654788 C26.9161521,38.5405857 23.5701177,39.5 20,39.5 C9.23044691,39.5 0.5,30.7695531 0.5,20 C0.5,9.23044691 9.23044691,0.5 20,0.5 C30.7695531,0.5 39.5,9.23044691 39.5,20 C39.5,23.5701177 38.5405857,26.9161521 36.8654788,29.794411 Z M5.5,20 C5.5,11.9918707 11.9918707,5.5 20,5.5 C28.0081293,5.5 34.5,11.9918707 34.5,20 C34.5,28.0081293 28.0081293,34.5 20,34.5 C11.9918707,34.5 5.5,28.0081293 5.5,20 Z M5.5,20" id="Rectangle 2" fill="#FFFFFF"></path>
            <path d="M34.212743,33.3510395 L44.474144,44.253778 L40.8284271,47.8994949 L29.794411,36.8654788 C26.9161913,38.5405745 23.5701386,39.5 20,39.5 C9.23044691,39.5 0.5,30.7695531 0.5,20 C0.5,9.23044691 9.23044691,0.5 20,0.5 C30.7695531,0.5 39.5,9.23044691 39.5,20 C39.5,24.8690139 37.715473,29.3212291 34.7647812,32.7382828 C34.5850385,32.946434 34.4009686,33.1507442 34.212743,33.3510395 Z M5.5,20 C5.5,11.9918707 11.9918707,5.5 20,5.5 C28.0081293,5.5 34.5,11.9918707 34.5,20 C34.5,28.0081293 28.0081293,34.5 20,34.5 C11.9918707,34.5 5.5,28.0081293 5.5,20 Z M5.5,20" id="Path 5" fill="#E6E6E6"></path>
        </g>
    </g>
</svg>