<?xml version="1.0" encoding="UTF-8" standalone="no"?>
<svg width="16px" height="16px" viewBox="0 0 16 16" version="1.1" xmlns="http://www.w3.org/2000/svg" xmlns:xlink="http://www.w3.org/1999/xlink" xmlns:sketch="http://www.bohemiancoding.com/sketch/ns">
    <title>icon-tab-stores</title>
    <description>Created with Sketch (http://www.bohemiancoding.com/sketch)</description>
    <defs></defs>
    <g id="icon-tab-stores" stroke="none" stroke-width="1" fill="none" fill-rule="evenodd">
        <g fill="#333333">
            <g id="Group" transform="translate(0.000000, 2.000000)">
                <path d="M14,5 L14,14 L12,14 L12,7 L9,7 L9,14 L2,14 L2,5 L0,5 L1.53784184,0 L3,0 L3,3.33333333 C3,3.70152318 3.44771522,4 4,4 C4.55228478,4 5,3.70152318 5,3.33333333 L5,0 L7,0 L7,3.33333333 C7,3.70152318 7.44771522,4 8,4 C8.55228478,4 9,3.70152318 9,3.33333333 L9,0 L11,0 L11,3.33333333 C11,3.70152318 11.4477152,4 12,4 C12.5522848,4 13,3.70152318 13,3.33333333 L13,0 L14.4240723,0 L16,5 Z M4,7 L4,10 L7,10 L7,7 Z M4,7" id="Rectangle 1"></path>
            </g>
            <path d="M2,0 L2,1 L14,1 L14,0 L2,0 Z M2,0" id="Rectangle 7"></path>
        </g>
    </g>
</svg>