<?xml version="1.0" encoding="UTF-8" standalone="no"?>
<svg width="32px" height="32px" viewBox="0 0 32 32" version="1.1" xmlns="http://www.w3.org/2000/svg" xmlns:xlink="http://www.w3.org/1999/xlink" xmlns:sketch="http://www.bohemiancoding.com/sketch/ns">
    <title>icon-sidebar-nearby</title>
    <description>Created with Sketch (http://www.bohemiancoding.com/sketch)</description>
    <defs></defs>
    <g id="icon-sidebar-nearby" stroke="none" stroke-width="1" fill="none" fill-rule="evenodd">
        <g>
            <g id="Group" transform="translate(-1.000000, 0.000000)">
                <path d="M19.6757812,9.64552724 L19.6757812,21.34375 L3.66796872,21.34375 L3.66796872,9.64552724 L0.999999907,9.64552724 L3.0514569,4.07947859 L20.241487,4.07947859 L22.34375,9.64552724 Z M19.6757812,9.64552724" id="Rectangle 1" fill="#1C3755"></path>
                <path d="M6,14 L6,18 L10,18 L10,14 L6,14 Z M6,14" id="Rectangle 2" fill="#FFFFFF"></path>
                <path d="M13,14 L13,21 L17,21 L17,14 L13,14 Z M13,14" id="Rectangle 2" fill="#FFFFFF"></path>
                <path d="M4,0 L4,2 L19,2 L19,0 L4,0 Z M4,0" id="Rectangle 4" fill="#1C3755"></path>
                <path d="M4,4 L6,4 L6,9.92307692 C6,10.5178451 5.55228478,11 5,11 C4.44771522,11 4,10.5178451 4,9.92307692 Z M18,4 L20,4 L20,9.92307692 C20,10.5178451 19.5522848,11 19,11 C18.4477152,11 18,10.5178451 18,9.92307692 Z M13.3333333,4 L15.3333333,4 L15.3333333,9.92307692 C15.3333333,10.5178451 14.8856181,11 14.3333333,11 C13.7810486,11 13.3333333,10.5178451 13.3333333,9.92307692 Z M8.66666667,4 L10.6666667,4 L10.6666667,9.92307692 C10.6666667,10.5178451 10.2189514,11 9.66666667,11 C9.11438189,11 8.66666667,10.5178451 8.66666667,9.92307692 Z M8.66666667,4" id="Rectangle 5" fill="#FFFFFF"></path>
            </g>
            <path d="M26,12 C24.3431457,12 23,10.6568543 23,9 C23,7.34314567 24.3431457,6 26,6 C27.6568543,6 29,7.34314567 29,9 C29,10.6568543 27.6568543,12 26,12 L26.6213204,12 L27,12 L27,13 L27.0020869,13 C27.3820053,13 27.7378849,13.1064547 28.0409946,13.2911793 L27.967041,13.0183105 C27.967041,13.0183105 29.9414052,12.7209724 30.979248,13.4882813 C31.8102105,14.1026371 31.965965,15.484576 31.9940499,15.8876505 C31.9979828,15.9237379 32,15.9604042 32,15.9975446 L32,23.0024554 C32,23.5536886 31.5522847,24 31,24 C30.4438648,24 30,23.553384 30,23.0024554 L30,16 L29,16 L29,21.9955744 L29,22.007983 L29,31.0044225 C29,31.555163 28.5522847,32 28,32 C27.4438648,32 27,31.5542648 27,31.0044225 L27,24 L25,24 L25,31.0044225 C25,31.555163 24.5522847,32 24,32 C23.4438648,32 23,31.5542648 23,31.0044225 L23,22.0079861 L23,21.9955775 L23,16 L22,16 L22,23.0024554 C22,23.5536886 21.5522847,24 21,24 C20.4438648,24 20,23.553384 20,23.0024554 L20,15.9975446 C20,15.7745189 20.0732894,15.5686686 20.1971413,15.4026053 C20.2947594,14.8150513 20.5401266,13.9421755 21.1540527,13.4882813 C22.1918955,12.7209724 24.1662598,13.0183105 24.1662598,13.0183105 L24.1154402,13.2058211 C24.381564,13.0741952 24.6811286,13 24.9979131,13 L25,13 L25,12 Z M26,12" id="Rectangle 5" fill="#1C3755"></path>
        </g>
    </g>
</svg>