<?xml version="1.0" encoding="UTF-8" standalone="no"?>
<svg width="120px" height="41px" viewBox="0 0 120 41" version="1.1" xmlns="http://www.w3.org/2000/svg" xmlns:xlink="http://www.w3.org/1999/xlink" xmlns:sketch="http://www.bohemiancoding.com/sketch/ns">
    <title>Slice 1</title>
    <description>Created with Sketch (http://www.bohemiancoding.com/sketch)</description>
    <defs></defs>
    <g id="Page 1" stroke="none" stroke-width="1" fill="none" fill-rule="evenodd">
        <g id="Layer_1" fill="#FFFFFF">
            <path d="M34.996,37.328 L26.284,37.328 L24.99,40.096 L19.466,40.096 L19.466,39.279 L29.409,17.789 L31.84,17.789 L41.815,39.279 L41.815,40.096 L36.29,40.096 L34.996,37.328 L34.996,37.328 Z M30.608,26.692 L28.146,32.481 L33.133,32.481 L30.608,26.692 L30.608,26.692 Z M30.608,26.692" id="Shape"></path>
            <path d="M51.196,30.307 L51.354,30.307 L56.393,17.81 L61.809,17.81 L61.809,18.66 L52.456,40.096 L50.063,40.096 L40.615,18.66 L40.615,17.81 L46.032,17.81 L51.196,30.307 Z M51.196,30.307" id="Shape"></path>
            <g id="Group" transform="translate(84.000000, 0.000000)">
                <path d="M7.984,22.751 C6.725,22.751 5.812,23.349 5.812,24.892 L1.026,24.892 C0.963,20.137 4.174,17.807 8.079,17.713 C14.408,17.556 17.179,23.821 13.904,28.891 L9.464,35.062 L16.013,35.062 L16.013,40.1 L0.522,40.1 L0.522,39.25 L8.803,27.127 C9.906,25.648 10.755,22.751 7.984,22.751" id="Shape"></path>
                <path d="M27.865,22.751 C26.605,22.751 25.692,23.349 25.692,24.892 L20.906,24.892 C20.843,20.137 24.055,17.807 27.959,17.713 C34.288,17.556 37.059,23.821 33.784,28.891 L29.344,35.062 L35.894,35.062 L35.894,40.1 L20.402,40.1 L20.402,39.25 L28.683,27.127 C29.785,25.648 30.636,22.751 27.865,22.751" id="Shape"></path>
                <path d="M35.894,12.333 L35.894,8.135 L28.719,8.135 L28.719,7.698 C28.719,4.728 24.035,0 18.485,0 L17.96,0 C12.41,0 7.726,4.728 7.726,7.698 L7.726,8.135 L0.521,8.135 L0.521,12.334 L11.924,12.334 L11.924,7.813 C12.206,7.013 14.591,4.198 17.959,4.198 L18.484,4.198 C21.852,4.198 24.237,7.012 24.519,7.812 L24.519,12.333 L35.894,12.333 L35.894,12.333 Z M35.894,12.333" id="Shape"></path>
            </g>
            <path d="M79.328,35.035 L70.818,35.039 L70.818,31.123 L78.36,31.123 L78.36,26.059 L70.818,26.059 L70.818,22.907 L79.086,22.908 L79.086,17.813 L65.15,17.813 L65.15,40.101 L79.328,40.101 L79.328,35.035 Z M79.328,35.035" id="Shape"></path>
            <path d="M7.233,27.136 L15.54,39.247 L15.54,40.096 L0,40.096 L0,35.063 L6.57,35.063 L2.116,28.898 C-1.169,23.834 1.611,17.574 7.959,17.731 C11.876,17.826 15.098,20.153 15.034,24.903 L10.233,24.903 C10.233,23.362 9.317,22.764 8.053,22.764 C5.275,22.764 6.128,25.658 7.233,27.136" id="Shape"></path>
        </g>
    </g>
</svg>