<?xml version="1.0" encoding="iso-8859-1"?>
<!-- Generator: Adobe Illustrator 16.2.1, SVG Export Plug-In . SVG Version: 6.00 Build 0)  -->
<!DOCTYPE svg PUBLIC "-//W3C//DTD SVG 1.1 Tiny//EN" "http://www.w3.org/Graphics/SVG/1.1/DTD/svg11-tiny.dtd">
<svg version="1.1" baseProfile="tiny" id="Layer_1" xmlns="http://www.w3.org/2000/svg" xmlns:xlink="http://www.w3.org/1999/xlink"
	 x="0px" y="0px" width="145.508px" height="30px" viewBox="0 0 145.508 30" xml:space="preserve">
<path fill="#B51616" d="M22.047,23.365H16.76l-0.785,1.682h-3.353V24.55l6.035-13.042h1.475l6.054,13.042v0.497h-3.353
	L22.047,23.365z M19.384,16.912l-1.494,3.514h3.027L19.384,16.912z"/>
<polygon fill="#B51616" points="31.879,19.104 31.975,19.104 35.033,11.52 38.32,11.52 38.32,12.036 32.644,25.047 31.191,25.047 
	25.458,12.036 25.458,11.52 28.745,11.52 "/>
<g>
	<path fill="#B51616" d="M56.634,14.519c-0.765,0-1.319,0.364-1.319,1.299h-2.904c-0.039-2.884,1.911-4.3,4.281-4.356
		c3.84-0.096,5.522,3.707,3.535,6.783l-2.694,3.746h3.975v3.059h-9.403v-0.517l5.026-7.357C57.8,16.277,58.315,14.519,56.634,14.519
		"/>
	<path fill="#B51616" d="M68.7,14.519c-0.765,0-1.319,0.364-1.319,1.299h-2.904c-0.04-2.884,1.91-4.3,4.281-4.356
		c3.84-0.096,5.522,3.707,3.535,6.783l-2.694,3.746h3.975v3.059H64.17v-0.517l5.025-7.357C69.865,16.277,70.381,14.519,68.7,14.519"
		/>
	<path fill="#B51616" d="M73.572,8.196V5.648h-4.354V5.383c0-1.803-2.842-4.672-6.21-4.672h-0.319c-3.369,0-6.211,2.869-6.211,4.672
		v0.265h-4.373v2.548h6.921V5.454c0.171-0.487,1.619-2.195,3.663-2.195h0.319c2.043,0,3.491,1.708,3.662,2.193v2.744H73.572z"/>
</g>
<polygon fill="#B51616" points="48.952,21.975 43.788,21.977 43.788,19.6 48.365,19.6 48.365,16.527 43.788,16.527 43.788,14.613 
	48.807,14.613 48.807,11.521 40.348,11.521 40.348,25.05 48.952,25.05 "/>
<path fill="#B51616" d="M5.198,17.181l5.042,7.35v0.517H0.808v-3.056h3.988l-2.704-3.742c-1.994-3.072-0.307-6.872,3.547-6.776
	c2.376,0.057,4.333,1.469,4.293,4.352H7.019c0-0.936-0.557-1.298-1.323-1.298C4.009,14.527,4.527,16.284,5.198,17.181"/>
<g>
	<path d="M77.045,25.271c-0.26-0.266-0.39-0.585-0.39-0.959c0-0.375,0.13-0.691,0.39-0.949c0.26-0.261,0.576-0.391,0.95-0.391
		s0.694,0.13,0.959,0.391c0.266,0.258,0.398,0.574,0.398,0.949c0,0.374-0.133,0.693-0.398,0.959
		c-0.265,0.265-0.585,0.398-0.959,0.398S77.305,25.535,77.045,25.271z"/>
	<path d="M86.267,25.669c-1.339,0-2.491-0.456-3.456-1.366c-0.966-0.911-1.448-2.104-1.448-3.574c0-1.473,0.504-2.671,1.512-3.595
		c1.006-0.922,2.234-1.384,3.683-1.384c1.447,0,2.672,0.501,3.674,1.503l-1.194,1.466c-0.833-0.725-1.672-1.087-2.516-1.087
		c-0.845,0-1.578,0.282-2.199,0.843c-0.622,0.561-0.933,1.285-0.933,2.172s0.308,1.639,0.923,2.254
		c0.616,0.614,1.373,0.923,2.272,0.923c0.897,0,1.746-0.411,2.542-1.231l1.196,1.303C89.15,25.077,87.799,25.669,86.267,25.669z"/>
	<path d="M100.276,24.23c-0.965,0.958-2.172,1.438-3.62,1.438s-2.654-0.48-3.62-1.438c-0.965-0.96-1.448-2.134-1.448-3.521
		s0.483-2.561,1.448-3.52c0.966-0.961,2.172-1.439,3.62-1.439s2.655,0.479,3.62,1.439c0.965,0.959,1.448,2.132,1.448,3.52
		S101.241,23.271,100.276,24.23z M94.476,22.981c0.572,0.585,1.3,0.878,2.181,0.878s1.607-0.293,2.181-0.878s0.86-1.343,0.86-2.272
		c0-0.929-0.287-1.686-0.86-2.271c-0.573-0.586-1.3-0.877-2.181-0.877s-1.608,0.291-2.181,0.877c-0.573,0.585-0.86,1.342-0.86,2.271
		C93.615,21.639,93.902,22.396,94.476,22.981z"/>
	<path d="M106.05,20.312v5.213h-2.027v-9.628h2.027v1.754c0.29-0.592,0.727-1.055,1.312-1.394c0.585-0.337,1.216-0.507,1.89-0.507
		c1.521,0,2.554,0.627,3.097,1.882c0.953-1.255,2.142-1.882,3.565-1.882c1.086,0,1.965,0.332,2.634,0.995
		c0.67,0.663,1.005,1.624,1.005,2.878v5.901h-2.027v-5.285c0-1.773-0.736-2.661-2.208-2.661c-0.688,0-1.288,0.221-1.802,0.66
		c-0.512,0.441-0.781,1.083-0.805,1.929v5.357h-2.027v-5.285c0-0.918-0.163-1.59-0.489-2.018c-0.326-0.429-0.838-0.644-1.539-0.644
		c-0.699,0-1.309,0.232-1.826,0.696C106.31,18.739,106.05,19.418,106.05,20.312z"/>
	<path d="M122.493,25.271c-0.26-0.266-0.389-0.585-0.389-0.959c0-0.375,0.129-0.691,0.389-0.949c0.26-0.261,0.577-0.391,0.95-0.391
		c0.375,0,0.694,0.13,0.959,0.391c0.266,0.258,0.398,0.574,0.398,0.949c0,0.374-0.133,0.693-0.398,0.959
		c-0.265,0.265-0.584,0.398-0.959,0.398C123.07,25.669,122.753,25.535,122.493,25.271z"/>
	<path d="M134.305,22.646c0,0.916-0.333,1.65-0.996,2.2c-0.664,0.548-1.515,0.823-2.553,0.823c-0.699,0-1.427-0.127-2.182-0.381
		c-0.753-0.252-1.42-0.609-2-1.067l0.978-1.575c1.123,0.846,2.209,1.268,3.259,1.268c0.459,0,0.821-0.105,1.085-0.316
		c0.267-0.211,0.398-0.479,0.398-0.807c0-0.482-0.639-0.916-1.918-1.302c-0.098-0.036-0.168-0.061-0.217-0.073
		c-2.004-0.543-3.005-1.447-3.005-2.715c0-0.892,0.348-1.608,1.04-2.146c0.693-0.537,1.596-0.805,2.707-0.805
		c1.109,0,2.16,0.326,3.149,0.979l-0.761,1.502c-0.784-0.52-1.635-0.779-2.552-0.779c-0.483,0-0.875,0.088-1.177,0.263
		s-0.453,0.438-0.453,0.788c0,0.313,0.158,0.541,0.472,0.688c0.217,0.109,0.521,0.211,0.914,0.308
		c0.393,0.096,0.738,0.193,1.04,0.29c0.302,0.096,0.595,0.205,0.878,0.325c0.284,0.12,0.588,0.29,0.914,0.508
		C133.979,21.053,134.305,21.73,134.305,22.646z"/>
	<path d="M145.508,15.896v8.397c0,1.701-0.462,2.977-1.385,3.829c-0.923,0.85-2.109,1.275-3.557,1.275s-2.758-0.452-3.929-1.357
		l0.96-1.539c0.942,0.712,1.892,1.068,2.851,1.068s1.72-0.248,2.281-0.742c0.561-0.495,0.841-1.285,0.841-2.371v-1.229
		c-0.301,0.565-0.732,1.019-1.294,1.356s-1.191,0.507-1.891,0.507c-1.279,0-2.329-0.445-3.15-1.339
		c-0.82-0.895-1.229-2.004-1.229-3.331c0-1.326,0.409-2.437,1.229-3.331c0.821-0.894,1.868-1.339,3.141-1.339
		s2.308,0.524,3.104,1.575v-1.429H145.508z M137.996,20.34c0,0.788,0.244,1.471,0.732,2.044c0.49,0.573,1.146,0.858,1.974,0.858
		c0.826,0,1.496-0.277,2.01-0.832c0.512-0.554,0.769-1.246,0.769-2.07c0-0.827-0.26-1.527-0.778-2.102
		c-0.52-0.573-1.188-0.859-2.01-0.859c-0.82,0-1.474,0.296-1.964,0.887C138.24,18.857,137.996,19.549,137.996,20.34z"/>
</g>
</svg>
