<?xml version="1.0" encoding="iso-8859-1"?>
<!-- Generator: Adobe Illustrator 16.2.1, SVG Export Plug-In . SVG Version: 6.00 Build 0)  -->
<!DOCTYPE svg PUBLIC "-//W3C//DTD SVG 1.1 Tiny//EN" "http://www.w3.org/Graphics/SVG/1.1/DTD/svg11-tiny.dtd">
<svg version="1.1" baseProfile="tiny" id="Layer_1" xmlns="http://www.w3.org/2000/svg" xmlns:xlink="http://www.w3.org/1999/xlink"
	 x="0px" y="0px" width="148.419px" height="30px" viewBox="0 0 148.419 30" xml:space="preserve">
<path fill="#B51616" d="M22.047,23.365H16.76l-0.785,1.682h-3.353V24.55l6.035-13.042h1.475l6.054,13.042v0.497h-3.353
	L22.047,23.365z M19.384,16.912l-1.494,3.514h3.027L19.384,16.912z"/>
<polygon fill="#B51616" points="31.879,19.104 31.975,19.104 35.033,11.52 38.32,11.52 38.32,12.036 32.644,25.047 31.191,25.047 
	25.458,12.036 25.458,11.52 28.745,11.52 "/>
<g>
	<path fill="#B51616" d="M56.634,14.519c-0.765,0-1.319,0.364-1.319,1.299h-2.904c-0.039-2.884,1.911-4.3,4.281-4.356
		c3.84-0.096,5.522,3.707,3.535,6.783l-2.694,3.746h3.975v3.059h-9.403v-0.517l5.026-7.357C57.8,16.277,58.315,14.519,56.634,14.519
		"/>
	<path fill="#B51616" d="M68.7,14.519c-0.765,0-1.319,0.364-1.319,1.299h-2.904c-0.04-2.884,1.91-4.3,4.281-4.356
		c3.84-0.096,5.522,3.707,3.535,6.783l-2.694,3.746h3.975v3.059H64.17v-0.517l5.025-7.357C69.865,16.277,70.381,14.519,68.7,14.519"
		/>
	<path fill="#B51616" d="M73.572,8.196V5.648h-4.354V5.383c0-1.803-2.842-4.672-6.21-4.672h-0.319c-3.369,0-6.211,2.869-6.211,4.672
		v0.265h-4.373v2.548h6.921V5.454c0.171-0.487,1.619-2.195,3.663-2.195h0.319c2.043,0,3.491,1.708,3.662,2.193v2.744H73.572z"/>
</g>
<polygon fill="#B51616" points="48.952,21.975 43.788,21.977 43.788,19.6 48.365,19.6 48.365,16.527 43.788,16.527 43.788,14.613 
	48.807,14.613 48.807,11.521 40.348,11.521 40.348,25.05 48.952,25.05 "/>
<path fill="#B51616" d="M5.198,17.181l5.042,7.35v0.517H0.808v-3.056h3.988l-2.704-3.742c-1.994-3.072-0.307-6.872,3.547-6.776
	c2.376,0.057,4.333,1.469,4.293,4.352H7.019c0-0.936-0.557-1.298-1.323-1.298C4.009,14.527,4.527,16.284,5.198,17.181"/>
<g display="none">
	<path display="inline" d="M77.045,25.271c-0.26-0.266-0.39-0.585-0.39-0.959c0-0.375,0.13-0.691,0.39-0.949
		c0.26-0.261,0.576-0.391,0.95-0.391s0.694,0.13,0.959,0.391c0.266,0.258,0.398,0.574,0.398,0.949c0,0.374-0.133,0.693-0.398,0.959
		c-0.265,0.265-0.585,0.398-0.959,0.398S77.305,25.535,77.045,25.271z"/>
	<path display="inline" d="M86.267,25.669c-1.339,0-2.491-0.456-3.456-1.366c-0.966-0.911-1.448-2.104-1.448-3.574
		c0-1.473,0.504-2.671,1.512-3.595c1.006-0.922,2.234-1.384,3.683-1.384c1.447,0,2.672,0.501,3.674,1.503l-1.194,1.466
		c-0.833-0.725-1.672-1.087-2.516-1.087c-0.845,0-1.578,0.282-2.199,0.843c-0.622,0.561-0.933,1.285-0.933,2.172
		s0.308,1.639,0.923,2.254c0.616,0.614,1.373,0.923,2.272,0.923c0.897,0,1.746-0.411,2.542-1.231l1.196,1.303
		C89.15,25.077,87.799,25.669,86.267,25.669z"/>
	<path display="inline" d="M100.276,24.23c-0.965,0.958-2.172,1.438-3.62,1.438s-2.654-0.48-3.62-1.438
		c-0.965-0.96-1.448-2.134-1.448-3.521s0.483-2.561,1.448-3.52c0.966-0.961,2.172-1.439,3.62-1.439s2.655,0.479,3.62,1.439
		c0.965,0.959,1.448,2.132,1.448,3.52S101.241,23.271,100.276,24.23z M94.476,22.981c0.572,0.585,1.3,0.878,2.181,0.878
		s1.607-0.293,2.181-0.878s0.86-1.343,0.86-2.272c0-0.929-0.287-1.686-0.86-2.271c-0.573-0.586-1.3-0.877-2.181-0.877
		s-1.608,0.291-2.181,0.877c-0.573,0.585-0.86,1.342-0.86,2.271C93.615,21.639,93.902,22.396,94.476,22.981z"/>
	<path display="inline" d="M106.05,20.312v5.213h-2.027v-9.628h2.027v1.754c0.29-0.592,0.727-1.055,1.312-1.394
		c0.585-0.337,1.216-0.507,1.89-0.507c1.521,0,2.554,0.627,3.097,1.882c0.953-1.255,2.142-1.882,3.565-1.882
		c1.086,0,1.965,0.332,2.634,0.995c0.67,0.663,1.005,1.624,1.005,2.878v5.901h-2.027v-5.285c0-1.773-0.736-2.661-2.208-2.661
		c-0.688,0-1.288,0.221-1.802,0.66c-0.512,0.441-0.781,1.083-0.805,1.929v5.357h-2.027v-5.285c0-0.918-0.163-1.59-0.489-2.018
		c-0.326-0.429-0.838-0.644-1.539-0.644c-0.699,0-1.309,0.232-1.826,0.696C106.31,18.739,106.05,19.418,106.05,20.312z"/>
	<path display="inline" d="M122.493,25.271c-0.26-0.266-0.389-0.585-0.389-0.959c0-0.375,0.129-0.691,0.389-0.949
		c0.26-0.261,0.577-0.391,0.95-0.391c0.375,0,0.694,0.13,0.959,0.391c0.266,0.258,0.398,0.574,0.398,0.949
		c0,0.374-0.133,0.693-0.398,0.959c-0.265,0.265-0.584,0.398-0.959,0.398C123.07,25.669,122.753,25.535,122.493,25.271z"/>
	<path display="inline" d="M134.305,22.646c0,0.916-0.333,1.65-0.996,2.2c-0.664,0.548-1.515,0.823-2.553,0.823
		c-0.699,0-1.427-0.127-2.182-0.381c-0.753-0.252-1.42-0.609-2-1.067l0.978-1.575c1.123,0.846,2.209,1.268,3.259,1.268
		c0.459,0,0.821-0.105,1.085-0.316c0.267-0.211,0.398-0.479,0.398-0.807c0-0.482-0.639-0.916-1.918-1.302
		c-0.098-0.036-0.168-0.061-0.217-0.073c-2.004-0.543-3.005-1.447-3.005-2.715c0-0.892,0.348-1.608,1.04-2.146
		c0.693-0.537,1.596-0.805,2.707-0.805c1.109,0,2.16,0.326,3.149,0.979l-0.761,1.502c-0.784-0.52-1.635-0.779-2.552-0.779
		c-0.483,0-0.875,0.088-1.177,0.263s-0.453,0.438-0.453,0.788c0,0.313,0.158,0.541,0.472,0.688c0.217,0.109,0.521,0.211,0.914,0.308
		c0.393,0.096,0.738,0.193,1.04,0.29c0.302,0.096,0.595,0.205,0.878,0.325c0.284,0.12,0.588,0.29,0.914,0.508
		C133.979,21.053,134.305,21.73,134.305,22.646z"/>
	<path display="inline" d="M145.508,15.896v8.397c0,1.701-0.462,2.977-1.385,3.829c-0.923,0.85-2.109,1.275-3.557,1.275
		s-2.758-0.452-3.929-1.357l0.96-1.539c0.942,0.712,1.892,1.068,2.851,1.068s1.72-0.248,2.281-0.742
		c0.561-0.495,0.841-1.285,0.841-2.371v-1.229c-0.301,0.565-0.732,1.019-1.294,1.356s-1.191,0.507-1.891,0.507
		c-1.279,0-2.329-0.445-3.15-1.339c-0.82-0.895-1.229-2.004-1.229-3.331c0-1.326,0.409-2.437,1.229-3.331
		c0.821-0.894,1.868-1.339,3.141-1.339s2.308,0.524,3.104,1.575v-1.429H145.508z M137.996,20.34c0,0.788,0.244,1.471,0.732,2.044
		c0.49,0.573,1.146,0.858,1.974,0.858c0.826,0,1.496-0.277,2.01-0.832c0.512-0.554,0.769-1.246,0.769-2.07
		c0-0.827-0.26-1.527-0.778-2.102c-0.52-0.573-1.188-0.859-2.01-0.859c-0.82,0-1.474,0.296-1.964,0.887
		C138.24,18.857,137.996,19.549,137.996,20.34z"/>
</g>
<g display="none">
	<path display="inline" d="M77.045,25.229c-0.26-0.265-0.39-0.586-0.39-0.96s0.13-0.691,0.39-0.952
		c0.259-0.259,0.575-0.389,0.95-0.389c0.376,0,0.695,0.13,0.961,0.389c0.266,0.261,0.398,0.578,0.398,0.952s-0.133,0.695-0.398,0.96
		c-0.266,0.266-0.585,0.399-0.961,0.399C77.62,25.628,77.304,25.494,77.045,25.229z"/>
	<path display="inline" d="M86.274,25.628c-1.34,0-2.494-0.456-3.46-1.37c-0.966-0.909-1.449-2.104-1.449-3.577
		s0.505-2.672,1.513-3.597c1.009-0.923,2.237-1.386,3.686-1.386c1.45,0,2.676,0.501,3.679,1.505l-1.195,1.467
		c-0.833-0.725-1.673-1.087-2.519-1.087s-1.579,0.28-2.201,0.843c-0.621,0.562-0.934,1.286-0.934,2.173
		c0,0.888,0.31,1.641,0.925,2.255c0.616,0.618,1.374,0.925,2.274,0.925c0.899,0,1.747-0.409,2.546-1.231l1.194,1.305
		C89.162,25.036,87.81,25.628,86.274,25.628z"/>
	<path display="inline" d="M100.299,24.186c-0.969,0.962-2.176,1.442-3.624,1.442c-1.45,0-2.657-0.48-3.623-1.442
		c-0.967-0.958-1.449-2.134-1.449-3.521c0-1.39,0.482-2.566,1.449-3.524c0.966-0.96,2.173-1.441,3.623-1.441
		c1.448,0,2.655,0.481,3.624,1.441c0.966,0.958,1.448,2.135,1.448,3.524C101.747,22.052,101.265,23.228,100.299,24.186z
		 M94.491,22.938c0.573,0.586,1.302,0.878,2.184,0.878s1.609-0.292,2.183-0.878c0.574-0.587,0.86-1.345,0.86-2.273
		c0-0.931-0.286-1.688-0.86-2.275c-0.573-0.586-1.301-0.878-2.183-0.878s-1.61,0.292-2.184,0.878
		c-0.573,0.587-0.861,1.345-0.861,2.275C93.63,21.593,93.918,22.351,94.491,22.938z"/>
	<path display="inline" d="M106.077,20.264v5.219h-2.028v-9.639h2.028v1.757c0.29-0.591,0.729-1.057,1.314-1.395
		c0.584-0.338,1.216-0.508,1.892-0.508c1.522,0,2.556,0.629,3.099,1.885c0.954-1.256,2.145-1.885,3.569-1.885
		c1.088,0,1.967,0.333,2.636,0.996c0.67,0.665,1.006,1.625,1.006,2.881v5.907h-2.029v-5.291c0-1.775-0.736-2.663-2.21-2.663
		c-0.688,0-1.291,0.221-1.804,0.662c-0.513,0.44-0.782,1.084-0.806,1.928v5.364h-2.029v-5.291c0-0.917-0.161-1.591-0.488-2.021
		c-0.326-0.427-0.84-0.643-1.541-0.643c-0.7,0-1.31,0.233-1.83,0.698C106.337,18.691,106.077,19.37,106.077,20.264z"/>
	<path display="inline" d="M122.537,25.229c-0.26-0.265-0.392-0.586-0.392-0.96s0.132-0.691,0.392-0.952
		c0.259-0.259,0.577-0.389,0.95-0.389c0.375,0,0.695,0.13,0.961,0.389c0.266,0.261,0.398,0.578,0.398,0.952s-0.133,0.695-0.398,0.96
		c-0.266,0.266-0.586,0.399-0.961,0.399C123.114,25.628,122.796,25.494,122.537,25.229z"/>
	<path display="inline" d="M129.521,20.264v5.219h-2.03v-9.639h2.03v1.757c0.289-0.591,0.727-1.057,1.313-1.395
		c0.585-0.338,1.217-0.508,1.893-0.508c1.522,0,2.555,0.629,3.098,1.885c0.954-1.256,2.146-1.885,3.57-1.885
		c1.087,0,1.966,0.333,2.635,0.996c0.671,0.665,1.006,1.625,1.006,2.881v5.907h-2.028v-5.291c0-1.775-0.737-2.663-2.212-2.663
		c-0.688,0-1.288,0.221-1.802,0.662c-0.514,0.44-0.782,1.084-0.807,1.928v5.364h-2.028v-5.291c0-0.917-0.163-1.591-0.489-2.021
		c-0.325-0.427-0.841-0.643-1.54-0.643c-0.701,0-1.312,0.233-1.831,0.698C129.78,18.691,129.521,19.37,129.521,20.264z"/>
	<path display="inline" d="M147.076,29.323c-0.882,0-1.679-0.32-2.392-0.96l0.925-1.649c0.422,0.398,0.86,0.598,1.313,0.598
		c0.452,0,0.821-0.162,1.104-0.488c0.283-0.327,0.426-0.683,0.426-1.069c0-0.17-1.299-3.473-3.895-9.911h2.173l2.881,7.103
		l2.882-7.103h2.173l-4.673,11.451c-0.28,0.628-0.677,1.123-1.196,1.484C148.277,29.142,147.705,29.323,147.076,29.323z"/>
</g>
<g>
	<path d="M77.045,25.233c-0.26-0.266-0.39-0.584-0.39-0.958s0.13-0.691,0.39-0.95c0.259-0.26,0.574-0.389,0.948-0.389
		c0.375,0,0.693,0.129,0.96,0.389c0.264,0.259,0.397,0.576,0.397,0.95s-0.134,0.692-0.397,0.958
		c-0.267,0.264-0.585,0.399-0.96,0.399C77.619,25.633,77.304,25.497,77.045,25.233z"/>
	<path d="M86.26,25.633c-1.34,0-2.49-0.457-3.455-1.366c-0.966-0.911-1.447-2.102-1.447-3.574c0-1.471,0.503-2.665,1.511-3.588
		c1.006-0.922,2.234-1.383,3.681-1.383c1.445,0,2.67,0.499,3.671,1.501l-1.194,1.464c-0.833-0.724-1.669-1.085-2.514-1.085
		c-0.843,0-1.577,0.28-2.197,0.842c-0.621,0.56-0.931,1.283-0.931,2.17c0,0.886,0.307,1.637,0.921,2.249
		c0.615,0.617,1.373,0.924,2.27,0.924c0.899,0,1.746-0.409,2.542-1.229l1.193,1.302C89.141,25.042,87.789,25.633,86.26,25.633z"/>
	<path d="M100.257,24.194c-0.964,0.959-2.17,1.438-3.617,1.438s-2.654-0.479-3.615-1.438c-0.965-0.96-1.448-2.13-1.448-3.519
		c0-1.387,0.483-2.559,1.448-3.518c0.961-0.959,2.168-1.437,3.615-1.437s2.653,0.478,3.617,1.437s1.446,2.131,1.446,3.518
		C101.703,22.064,101.221,23.234,100.257,24.194z M94.461,22.945c0.572,0.587,1.3,0.878,2.179,0.878c0.88,0,1.606-0.291,2.18-0.878
		c0.572-0.585,0.859-1.341,0.859-2.27c0-0.928-0.287-1.685-0.859-2.269c-0.573-0.586-1.3-0.878-2.18-0.878
		c-0.879,0-1.606,0.292-2.179,0.878c-0.572,0.584-0.859,1.341-0.859,2.269C93.602,21.604,93.889,22.36,94.461,22.945z"/>
	<path d="M106.025,20.279v5.206h-2.024v-9.62h2.024v1.755c0.291-0.592,0.728-1.056,1.312-1.393c0.584-0.339,1.215-0.506,1.89-0.506
		c1.519,0,2.551,0.626,3.092,1.88c0.954-1.254,2.141-1.88,3.564-1.88c1.083,0,1.961,0.332,2.631,0.992
		c0.669,0.664,1.004,1.623,1.004,2.877v5.895h-2.027v-5.279c0-1.771-0.734-2.661-2.204-2.661c-0.688,0-1.287,0.223-1.799,0.661
		c-0.514,0.441-0.78,1.083-0.805,1.928v5.352h-2.026v-5.279c0-0.917-0.163-1.59-0.49-2.018c-0.325-0.427-0.838-0.644-1.536-0.644
		c-0.7,0-1.309,0.235-1.828,0.699C106.287,18.707,106.025,19.385,106.025,20.279z"/>
	<path d="M122.458,25.233c-0.26-0.266-0.39-0.584-0.39-0.958s0.13-0.691,0.39-0.95c0.259-0.26,0.574-0.389,0.947-0.389
		c0.376,0,0.694,0.129,0.959,0.389c0.265,0.259,0.397,0.576,0.397,0.95s-0.133,0.692-0.397,0.958
		c-0.265,0.264-0.583,0.399-0.959,0.399C123.032,25.633,122.717,25.497,122.458,25.233z"/>
	<path d="M132.559,15.722c1.288,0,2.392,0.446,3.308,1.337c0.918,0.894,1.377,2.08,1.377,3.563s-0.457,2.689-1.366,3.617
		c-0.911,0.929-1.972,1.394-3.185,1.394c-1.21,0-2.298-0.53-3.264-1.592v4.955h-2.024V15.865h2.024v1.68
		C130.225,16.328,131.267,15.722,132.559,15.722z M129.392,20.692c0,0.918,0.277,1.668,0.833,2.253
		c0.555,0.587,1.229,0.878,2.025,0.878s1.489-0.288,2.08-0.868c0.59-0.58,0.886-1.329,0.886-2.252c0-0.922-0.288-1.688-0.866-2.296
		c-0.581-0.61-1.272-0.915-2.08-0.915c-0.81,0-1.49,0.305-2.045,0.915C129.669,19.015,129.392,19.778,129.392,20.692z"/>
	<path d="M141.582,20.279v5.206h-2.025v-13.4h2.025v5.535c0.289-0.592,0.727-1.056,1.311-1.393c0.587-0.339,1.218-0.506,1.892-0.506
		c1.086,0,1.962,0.332,2.63,0.992c0.671,0.664,1.005,1.623,1.005,2.877v5.895h-2.026v-5.279c0-1.771-0.733-2.661-2.206-2.661
		c-0.699,0-1.308,0.235-1.826,0.699C141.842,18.707,141.582,19.385,141.582,20.279z"/>
</g>
</svg>
