<?xml version="1.0" encoding="iso-8859-1"?>
<!-- Generator: Adobe Illustrator 16.2.1, SVG Export Plug-In . SVG Version: 6.00 Build 0)  -->
<!DOCTYPE svg PUBLIC "-//W3C//DTD SVG 1.1 Tiny//EN" "http://www.w3.org/Graphics/SVG/1.1/DTD/svg11-tiny.dtd">
<svg version="1.1" baseProfile="tiny" id="Layer_1" xmlns="http://www.w3.org/2000/svg" xmlns:xlink="http://www.w3.org/1999/xlink"
	 x="0px" y="0px" width="119.894px" height="40.101px" viewBox="0 0 119.894 40.101" xml:space="preserve">
<path fill="#B51616" d="M34.996,37.328h-8.712l-1.294,2.768h-5.524v-0.817l9.943-21.49h2.431l9.975,21.49v0.817H36.29L34.996,37.328
	z M30.608,26.692l-2.462,5.789h4.987L30.608,26.692z"/>
<polygon fill="#B51616" points="51.196,30.307 51.354,30.307 56.393,17.81 61.809,17.81 61.809,18.66 52.456,40.096 50.063,40.096 
	40.615,18.66 40.615,17.81 46.032,17.81 "/>
<g>
	<path fill="#B51616" d="M91.984,22.751c-1.259,0-2.172,0.598-2.172,2.141h-4.786c-0.063-4.755,3.148-7.085,7.053-7.179
		c6.329-0.157,9.1,6.108,5.825,11.178l-4.44,6.171h6.549v5.038H84.522v-0.85l8.281-12.123
		C93.906,25.648,94.755,22.751,91.984,22.751"/>
	<path fill="#B51616" d="M111.865,22.751c-1.26,0-2.173,0.598-2.173,2.141h-4.786c-0.063-4.755,3.149-7.085,7.053-7.179
		c6.329-0.157,9.1,6.108,5.825,11.178l-4.44,6.171h6.55v5.038h-15.492v-0.85l8.281-12.123
		C113.785,25.648,114.636,22.751,111.865,22.751"/>
	<path fill="#B51616" d="M119.894,12.333V8.135h-7.175V7.698c0-2.97-4.684-7.698-10.234-7.698h-0.525
		c-5.55,0-10.234,4.728-10.234,7.698v0.437h-7.205v4.199h11.403V7.813c0.282-0.8,2.667-3.615,6.035-3.615h0.525
		c3.368,0,5.753,2.814,6.035,3.614v4.521H119.894z"/>
</g>
<polygon fill="#B51616" points="79.328,35.035 70.818,35.039 70.818,31.123 78.36,31.123 78.36,26.059 70.818,26.059 70.818,22.907 
	79.086,22.908 79.086,17.813 65.15,17.813 65.15,40.101 79.328,40.101 "/>
<path fill="#B51616" d="M7.233,27.136l8.307,12.111v0.849H0v-5.033h6.57l-4.454-6.165c-3.285-5.064-0.505-11.324,5.843-11.167
	c3.917,0.095,7.139,2.422,7.075,7.172h-4.801c0-1.541-0.916-2.139-2.18-2.139C5.275,22.764,6.128,25.658,7.233,27.136"/>
</svg>
